<?xml version="1.0" encoding="UTF-8"?>
<svg width="512px" height="512px" viewBox="0 0 512 512" version="1.1" xmlns="http://www.w3.org/2000/svg" xmlns:xlink="http://www.w3.org/1999/xlink">
    <!-- Generator: Sketch 51.3 (57544) - http://www.bohemiancoding.com/sketch -->
    <title>Favicon-Silhoutte</title>
    <desc>Created with Sketch.</desc>
    <defs>
        <linearGradient x1="100%" y1="0%" x2="66.7920308%" y2="100%" id="linearGradient-1">
            <stop stop-color="#ECECEC" offset="0%"></stop>
            <stop stop-color="#FFFFFF" offset="100%"></stop>
        </linearGradient>
    </defs>
    <g id="Favicon-Silhoutte" stroke="none" stroke-width="1" fill="none" fill-rule="evenodd">
        <g id="Page-1" transform="translate(0.000000, 110.000000)">
            <g id="Group-42">
                <path d="M294.032,0.418252964 L261.096,116.293638 C253.46,143.474753 247.254,167.794698 243.436,191.159587 L242.004,191.159587 C236.754,167.794698 230.07,143.474753 221.48,115.818109 L185.68,0.418252964 L150.358,0.418252964 L112.65,118.201751 C105.012,142.997225 97.372,167.794698 92.124,191.159587 L90.692,191.159587 C86.394,167.31717 80.19,143.474753 73.508,117.724223 L42.958,0.418252964 L0,0.418252964 L69.688,231.215966 L107.876,231.215966 L145.106,121.538451 C153.222,96.7429763 160.382,72.9025573 166.11,45.243915 L167.066,45.243915 C172.792,72.4230316 179.474,95.3123913 187.588,121.060923 L222.91,231.215966 L261.096,231.215966 L335.56,0.418252964 L294.032,0.418252964 Z" id="Path" fill="url(#linearGradient-1)"></path>
                <path d="M339.9806,0.418252964 L390.5766,136.799356 C395.8266,152.058263 401.5546,170.17834 405.3726,184.00866 L406.3286,184.00866 C410.6246,170.17834 415.3966,152.535791 421.1246,135.8443 L466.9486,0.418252964 L511.3406,0.418252964 L448.3326,164.933528 C418.2626,244.091231 397.7366,284.62314 369.0986,309.418615 C348.5726,327.54069 328.0466,334.693615 317.5446,336.599729 L296.0366,324.16403 L307.0446,301.312632 C317.5446,297.975933 331.3886,291.298538 343.7986,280.808913 C355.2546,271.747875 369.5746,255.535911 379.1206,234.075138 C381.0286,229.785381 382.4626,226.446684 382.4626,224.063042 C382.4626,221.677401 381.5086,218.338704 379.5986,213.093891 L294.1566,0.418252964 L339.9806,0.418252964 Z" id="Fill-16" fill="#FFFFFF"></path>
            </g>
        </g>
    </g>
</svg>