<?xml version="1.0" standalone="no"?>
<!DOCTYPE svg PUBLIC "-//W3C//DTD SVG 20010904//EN"
 "http://www.w3.org/TR/2001/REC-SVG-20010904/DTD/svg10.dtd">
<svg version="1.0" xmlns="http://www.w3.org/2000/svg"
 width="700.000000pt" height="700.000000pt" viewBox="0 0 700.000000 700.000000"
 preserveAspectRatio="xMidYMid meet">
<metadata>
Created by potrace 1.11, written by Peter Selinger 2001-2013
</metadata>
<g transform="translate(0.000000,700.000000) scale(0.100000,-0.100000)"
fill="#000000" stroke="none">
<path d="M16 5438 c8 -29 26 -88 40 -130 13 -43 30 -101 38 -130 8 -29 26 -91
41 -138 54 -172 106 -346 114 -375 5 -16 45 -149 89 -295 44 -146 117 -386
162 -535 45 -148 118 -389 162 -535 44 -146 93 -310 110 -365 99 -332 141
-471 162 -535 l21 -65 259 0 258 0 10 25 c8 21 226 659 360 1055 22 66 62 183
88 260 110 322 256 810 285 954 2 9 10 46 19 84 9 37 18 80 21 96 3 16 9 40
14 53 7 18 10 20 15 8 5 -13 26 -102 42 -180 3 -14 10 -43 16 -65 5 -22 12
-47 13 -55 23 -100 117 -434 165 -585 16 -49 56 -178 90 -285 34 -107 70 -220
80 -250 10 -30 46 -143 80 -250 34 -107 84 -262 110 -345 27 -82 74 -231 106
-330 32 -99 59 -182 62 -185 2 -3 120 -5 263 -5 281 0 264 -3 275 50 1 6 9 30
17 55 8 25 54 167 102 315 48 149 97 302 110 340 13 39 60 185 105 325 116
362 179 557 200 620 10 30 41 125 68 210 129 401 146 450 152 443 4 -4 30 -66
58 -138 28 -71 212 -528 407 -1015 196 -487 370 -920 385 -963 39 -103 44
-162 19 -217 -10 -23 -19 -45 -19 -49 0 -16 -121 -232 -167 -299 -183 -267
-454 -489 -731 -599 l-95 -37 -73 -153 c-41 -85 -74 -155 -74 -157 0 -3 21
-16 48 -31 26 -15 67 -39 91 -53 25 -13 68 -38 95 -55 28 -17 61 -30 72 -29
45 3 233 72 318 116 525 275 838 703 1251 1711 31 77 65 158 75 180 9 22 21
51 25 65 4 14 13 39 20 55 18 41 54 136 141 365 41 107 78 204 84 215 5 11 52
135 105 275 100 263 209 550 250 655 28 71 274 713 320 835 18 47 36 93 40
103 7 16 -11 17 -297 17 l-305 0 -56 -167 c-31 -93 -119 -355 -197 -583 -218
-640 -446 -1324 -478 -1435 -100 -340 -98 -333 -107 -324 -2 3 -25 75 -50 160
-67 222 -138 439 -212 639 -173 470 -265 718 -278 750 -13 31 -54 142 -260
700 -30 80 -63 170 -74 200 -12 30 -21 56 -21 57 0 2 -142 3 -315 3 l-314 0
-20 -67 c-11 -38 -95 -331 -186 -653 -91 -322 -183 -646 -205 -720 -94 -326
-211 -785 -234 -915 -3 -16 -8 -41 -11 -55 -2 -14 -12 -64 -21 -112 -9 -49
-21 -88 -26 -88 -10 0 -11 2 -34 105 -45 203 -190 719 -310 1100 -31 99 -65
208 -75 243 -59 195 -136 444 -147 477 -6 17 -27 84 -47 150 -20 66 -50 161
-65 210 -16 50 -45 143 -65 208 l-36 117 -243 0 -242 0 -51 -162 c-28 -90 -72
-228 -98 -308 -26 -80 -62 -192 -80 -250 -18 -58 -90 -283 -160 -500 -193
-600 -290 -930 -392 -1328 -16 -60 -33 -77 -39 -36 -2 15 -23 125 -29 154 -1
3 -7 32 -14 65 -28 134 -69 301 -161 660 -28 110 -52 207 -54 215 -5 21 -81
311 -101 385 -9 33 -18 67 -20 75 -1 8 -35 139 -75 290 -40 151 -74 282 -76
290 -2 8 -28 111 -59 229 -30 118 -55 216 -55 218 0 2 -133 3 -294 3 l-295 0
15 -52z"/>
</g>
</svg>
