<?xml version="1.0" standalone="no"?>
<!DOCTYPE svg PUBLIC "-//W3C//DTD SVG 1.1//EN" "http://www.w3.org/Graphics/SVG/1.1/DTD/svg11.dtd" >
<svg xmlns="http://www.w3.org/2000/svg" xmlns:xlink="http://www.w3.org/1999/xlink" version="1.1">
<metadata></metadata>
<defs>
<font id="kithbold" horiz-adv-x="1058" >
<font-face units-per-em="2048" ascent="1638" descent="-410" />
<missing-glyph horiz-adv-x="500" />
<glyph horiz-adv-x="0" />
<glyph horiz-adv-x="682" />
<glyph unicode=" "  horiz-adv-x="500" />
<glyph unicode="&#x09;" horiz-adv-x="500" />
<glyph unicode="&#xa0;" horiz-adv-x="500" />
<glyph unicode="!" horiz-adv-x="741" d="M276 72q0 39 28 66.5t67 27.5q37 0 64.5 -27.5t27.5 -66.5q0 -38 -27.5 -65t-64.5 -27q-39 0 -67 27t-28 65zM279 352h186v963h-186v-963z" />
<glyph unicode="&#x22;" horiz-adv-x="956" d="M225 948v367h158v-367h-158zM573 948v367h158v-367h-158z" />
<glyph unicode="#" horiz-adv-x="1544" d="M113 352v187h354v237h-354v187h354v354h186v-354h238v354h186v-354h355v-187h-355v-237h355v-187h-355v-354h-186v354h-238v-354h-186v354h-354zM653 539h238v237h-238v-237z" />
<glyph unicode="$" horiz-adv-x="1255" d="M178 240l120 146q50 -72 126 -128.5t177 -69.5q89 -11 157 27q67 38 102 107q9 17 10.5 29t-7.5 32t-34 44q-64 62 -230 145q-201 100 -284 178q-155 148 -76 331q71 131 191 196q46 25 105 38v130h186v-125q33 -4 46 -9q70 -23 145 -76q96 -69 166 -167l-130 -156 q-67 85 -122 132q-44 39 -93.5 61.5t-105 25t-107.5 -25.5q-61 -33 -102 -108q-25 -50 25.5 -107t226.5 -145q77 -39 107.5 -54.5t88 -52.5t97.5 -75q162 -154 73 -326q-64 -123 -188 -193q-57 -32 -127 -45v-124h-186v130q-18 3 -34 7q-96 25 -182.5 85.5t-140.5 142.5z " />
<glyph unicode="%" horiz-adv-x="1765" d="M204 1032q0 127 89 216t216 89t216 -89t89 -216t-89 -216t-216 -89t-216 89t-89 216zM248 0h201l1018 1257h-199zM382 1032q0 -52 37 -89.5t90 -37.5t90.5 37.5t37.5 89.5t-37.5 90t-90.5 38q-52 0 -89.5 -37.5t-37.5 -90.5zM951 285q0 127 89 216t216 89t216 -89 t89 -216t-89 -216t-216 -89t-216 89t-89 216zM1128 285q0 -53 38 -90.5t90 -37.5t90 37.5t38 90.5q0 52 -37.5 89.5t-90.5 37.5t-90.5 -37.5t-37.5 -89.5z" />
<glyph unicode="&#x26;" horiz-adv-x="1568" d="M180 410q9 76 47 144t97 116l141 110q-50 38 -77 68.5t-44 79.5q-38 90 -10 186q22 85 98 154q81 67 211 67q45 0 94.5 -21t85.5 -54q67 -57 90 -140q29 -98 -6 -190q-37 -100 -143 -166l242 -293l262 207l123 -154l-261 -205l256 -319h-251l-160 195l-166 -132 q-125 -100 -287 -81q-163 19 -258 143q-100 121 -84 285zM375 387.5q-13 -80.5 37 -143.5t130.5 -68.5t151.5 49.5l158 125l-242 293l-153 -123q-69 -52 -82 -132.5zM497 1035.5q0 -38.5 23 -70.5q23 -36 65 -49t83 2q38 12 60 44t22 78q-2 44 -31 78t-74 41 q-36 6 -70.5 -8.5t-54.5 -44.5q-23 -32 -23 -70.5z" />
<glyph unicode="'" horiz-adv-x="608" d="M225 948v367h158v-367h-158z" />
<glyph unicode="(" horiz-adv-x="1003" d="M226 563q-7 264 108.5 542.5t313.5 463.5l131 -130q-363 -373 -363 -876q0 -502 363 -875l-131 -130q-198 184 -313.5 462.5t-108.5 542.5z" />
<glyph unicode=")" horiz-adv-x="1003" d="M225 -312q363 373 363 875q0 503 -363 876l131 130q198 -185 313.5 -463.5t108.5 -542.5q7 -264 -108.5 -542.5t-313.5 -462.5z" />
<glyph unicode="*" horiz-adv-x="1099" d="M195 801l245 139l-245 137l69 88l234 -135v285h104v-285l234 135l69 -88l-246 -137l246 -139l-69 -84l-234 131v-285h-104v285l-234 -131z" />
<glyph unicode="+" horiz-adv-x="1208" d="M203 539v186h315v309h180v-309h308v-186h-308v-308h-180v308h-315z" />
<glyph unicode="," horiz-adv-x="466" d="M123 -150l67 150q-28 12 -44.5 38.5t-16.5 57.5q0 44 31.5 76.5t75.5 32.5q45 0 76.5 -32t31.5 -77q0 -24 -8 -37l-94 -209h-119z" />
<glyph unicode="-" d="M225 539h609v186h-609v-186z" />
<glyph unicode="." horiz-adv-x="460" d="M123 86q0 44 32 75.5t76 31.5q43 0 75 -31.5t32 -75.5t-32 -75t-75 -31q-44 0 -76 31t-32 75z" />
<glyph unicode="/" horiz-adv-x="1271" d="M195 -121l692 1514h190l-692 -1514h-190z" />
<glyph unicode="0" horiz-adv-x="1255" d="M113 492v329q0 139 68.5 257.5t187 187.5t258.5 69q141 0 260 -69t187.5 -187.5t68.5 -257.5v-329q0 -139 -68.5 -257t-187.5 -186.5t-260 -68.5q-140 0 -258.5 68.5t-187 186.5t-68.5 257zM299 510q0 -149 96 -252.5t232 -103.5q137 0 233 102.5t96 253.5v293 q0 150 -96 253t-233 103q-136 0 -232 -102.5t-96 -253.5v-293z" />
<glyph unicode="1" horiz-adv-x="638" d="M225 0v1155l189 160v-1315h-189z" />
<glyph unicode="2" horiz-adv-x="1140" d="M113 0l624 772q68 87 68 143q0 85 -73 152.5t-169 67.5q-95 0 -168 -67.5t-73 -152.5v-45h-195v45q0 176 135 299q134 121 301 121q113 0 213.5 -57.5t160.5 -155t60 -207.5q0 -117 -75 -210l-420 -519h526v-186h-915z" />
<glyph unicode="3" horiz-adv-x="1120" d="M113 395h184q0 -85 83 -160t175 -75q84 0 149 54t91 128t7 155.5t-89 131.5q-40 31 -92 48t-123 15.5t-148 -26.5l293 460h-459v189h793l-287 -461q105 -34 181 -108.5t109.5 -166.5t26 -195.5t-60.5 -193.5q-70 -108 -173 -159t-218 -51q-111 0 -213 56t-165.5 152.5 t-63.5 206.5z" />
<glyph unicode="4" horiz-adv-x="1239" d="M113 356l602 959h221v-774h190v-185h-190v-356h-186v356h-637zM436 541h314v485z" />
<glyph unicode="5" horiz-adv-x="1071" d="M113 214l131 160q14 -78 93.5 -143.5t166.5 -65.5q113 0 192 92q71 88 58 202t-92 172q-119 89 -307 52q-44 -12 -89 -33.5t-68 -37.5l-24 -15v718h785l-156 -192h-440v-261q89 12 162 8q141 -5 248 -86q67 -50 113 -123t62 -157q32 -169 -58 -316q-66 -106 -169.5 -157 t-216.5 -51q-82 0 -162 32.5t-143 89.5q-49 44 -86 112z" />
<glyph unicode="6" horiz-adv-x="1099" d="M115 469.5q11 94.5 60 174.5l423 671h231l-290 -463q117 3 218 -50.5t162.5 -151t66.5 -216.5q6 -106 -39 -202.5t-129 -160.5q-86 -66 -195 -84.5t-211 15.5q-100 33 -175 109t-105 175q-28 89 -17 183.5zM309.5 448q-8.5 -68 17.5 -130q34 -79 112 -119.5t162 -21.5 q74 15 127.5 73t64.5 135q10 89 -38 160.5t-119 100.5q-73 26 -150 4.5t-127 -81.5q-41 -53 -49.5 -121z" />
<glyph unicode="7" horiz-adv-x="1247" d="M113 1315h1022l-588 -1315h-223l512 1126h-566z" />
<glyph unicode="8" horiz-adv-x="1060" d="M115 446q11 87 57 166.5t115 126.5q-48 48 -73.5 110t-25.5 120t13 114q22 72 73.5 132t120.5 92q60 28 135 28q76 0 136 -28q69 -32 120.5 -92t73.5 -132q13 -56 13 -114t-25.5 -120t-73.5 -110q69 -47 115 -126.5t57 -166.5q21 -188 -115 -337q-132 -129 -301 -129 t-301 129q-65 71 -94.5 158t-19.5 179zM301 403q0 -102 66 -169.5t163 -67.5t163.5 67.5t66.5 169.5q0 97 -66.5 163.5t-163.5 66.5t-163 -66.5t-66 -163.5zM367 991q0 -74 47 -123t116 -49q70 0 117 49t47 123q0 69 -47.5 116.5t-116.5 47.5t-116 -47.5t-47 -116.5z" />
<glyph unicode="9" horiz-adv-x="1087" d="M113 899q0 182 125 309t303 127q183 0 308.5 -126.5t125.5 -309.5q0 -97 -43 -184l-326 -715h-207l215 479q-23 -6 -73 -6q-177 0 -302.5 124.5t-125.5 301.5zM305 899q0 -99 68.5 -167t167.5 -68q104 0 173.5 68t69.5 167q0 105 -69 174.5t-174 69.5q-100 0 -168 -69.5 t-68 -174.5z" />
<glyph unicode=":" horiz-adv-x="665" d="M225 290q0 44 32.5 75.5t76.5 31.5q43 0 74.5 -31.5t31.5 -75.5t-31.5 -75t-74.5 -31q-45 0 -77 31t-32 75zM225 837q0 44 32 75t77 31q43 0 74.5 -31t31.5 -75t-31.5 -75.5t-74.5 -31.5q-44 0 -76.5 31.5t-32.5 75.5z" />
<glyph unicode=";" horiz-adv-x="671" d="M225 -150l68 150q-28 12 -45 38.5t-17 57.5q0 44 31.5 76.5t75.5 32.5q45 0 76.5 -32t31.5 -77q0 -24 -8 -37l-94 -209h-119zM231 633q0 44 32 75t77 31q43 0 74.5 -31t31.5 -75t-31.5 -75.5t-74.5 -31.5q-44 0 -76.5 31.5t-32.5 75.5z" />
<glyph unicode="&#x3c;" horiz-adv-x="1107" d="M203 633l702 397v-186l-370 -211l370 -209v-188z" />
<glyph unicode="=" horiz-adv-x="1318" d="M203 330h913v188h-913v-188zM203 752h913v186h-913v-186z" />
<glyph unicode="&#x3e;" horiz-adv-x="1107" d="M203 236v188l370 209l-370 211v186l702 -397z" />
<glyph unicode="?" horiz-adv-x="1267" d="M203 928q0 101 51 192q41 63 82 101q61 57 140 87.5t161 30.5q156 0 285 -100q64 -49 99.5 -117t41 -135.5t-3.5 -126.5t-31 -106q-56 -115 -135 -174q-69 -55 -158 -74v-191h-184v355h47q109 3 186 59q51 37 77.5 94t18.5 123.5t-55 120.5q-76 90 -188 90 q-94 0 -173 -72t-79 -157h-182zM549 72q0 39 27.5 66.5t66.5 27.5q37 0 64.5 -27.5t27.5 -66.5q0 -38 -27.5 -65t-64.5 -27q-38 0 -66 27t-28 65z" />
<glyph unicode="@" horiz-adv-x="1669" d="M196 702q12 183 113.5 333.5t264 231t345.5 68.5q137 -8 256 -68.5t198.5 -166.5t96.5 -238q15 -116 -21.5 -217.5t-122.5 -177.5q-65 -57 -144 -89.5t-155 -38t-148.5 13t-127.5 57.5t-89.5 102.5t-35.5 142.5q0 111 84.5 186.5t198.5 61.5q77 -14 133 -66t73 -128 q16 -76 -24 -170q100 40 154.5 118.5t41.5 178.5q-21 137 -127 220t-253 91q-133 9 -250.5 -49t-191.5 -166.5t-83 -241.5q-8 -133 50 -250.5t166 -191t241 -82.5q128 -7 205 22l119 -143q-151 -77 -336 -65q-137 10 -259 72.5t-206.5 159t-129.5 225t-36 265.5zM771 659 q0 -43 30 -72.5t73 -29.5t72.5 29.5t29.5 72.5t-29.5 73.5t-72.5 30.5t-73 -30.5t-30 -73.5z" />
<glyph unicode="A" horiz-adv-x="1339" d="M61 0l611 1335l606 -1335h-209l-119 266h-563l-119 -266h-207zM477 453h385l-190 428z" />
<glyph unicode="B" horiz-adv-x="1302" d="M203 0v1315h588q151 0 262.5 -112t111.5 -263q0 -65 -25.5 -130t-66.5 -112l-14 -14l55 -68q86 -111 86 -241q0 -156 -110.5 -265.5t-264.5 -109.5h-622zM389 186h436q75 0 133 55.5t58 133.5q0 77 -58 132.5t-133 55.5h-436v-377zM389 750h402q73 0 128.5 56.5 t55.5 133.5t-55.5 132.5t-128.5 55.5h-402v-378z" />
<glyph unicode="C" horiz-adv-x="1523" d="M195 659q0 138 54.5 263.5t146.5 215.5t218.5 143.5t264.5 53.5q163 0 304 -70t238 -192l-149 -123q-71 94 -173 148.5t-220 54.5q-132 0 -247 -67t-183 -181.5t-68 -245.5q0 -134 68.5 -247t183 -177.5t246.5 -64.5q118 0 220.5 51t172.5 141l141 -114 q-91 -124 -231 -196t-303 -72q-138 0 -264.5 53t-218.5 143.5t-146.5 217t-54.5 265.5z" />
<glyph unicode="D" horiz-adv-x="1503" d="M203 0h450q178 0 329 88t239 238.5t88 326.5q0 182 -88 334.5t-238.5 240t-329.5 87.5h-450v-1315zM389 186v942h264q127 0 234.5 -63t170 -172.5t62.5 -239.5q0 -192 -137 -329.5t-330 -137.5h-264z" />
<glyph unicode="E" horiz-adv-x="1241" d="M203 0h936v186h-750v353h561v186h-561v403h750v187h-936v-1315z" />
<glyph unicode="F" horiz-adv-x="1245" d="M203 0h186v539h567v186h-567v403h754v187h-940v-1315z" />
<glyph unicode="G" horiz-adv-x="1613" d="M195 653q0 185 89.5 342t244.5 248.5t339 91.5q162 0 302.5 -71t240.5 -199l-151 -111q-67 92 -170.5 144.5t-221.5 52.5q-99 0 -190 -38.5t-157.5 -104.5t-106 -159t-39.5 -196q0 -131 67 -243t180.5 -177t245.5 -65q185 0 330 135v203h-223l-154 186h568v-467 q-91 -113 -228.5 -179t-292.5 -66q-112 0 -170 20q-222 59 -362.5 239t-140.5 414z" />
<glyph unicode="H" horiz-adv-x="1529" d="M203 0h186v469h752v-469h186v1315h-186v-658h-752v658h-186v-1315z" />
<glyph unicode="I" horiz-adv-x="591" d="M203 0h186v1315h-186v-1315z" />
<glyph unicode="J" horiz-adv-x="1118" d="M0 291l137 166q15 -55 60 -144q33 -57 100 -98q50 -26 98 -39q19 -2 38 -2q126 0 206 78q41 41 65.5 95t24.5 110v858h186v-866q0 -111 -65 -228q-27 -49 -69.5 -93t-88.5 -73q-108 -69 -237 -69q-21 0 -43 2q-136 9 -252 90q-112 85 -152 190q0 3 -4 11t-4 12z" />
<glyph unicode="K" horiz-adv-x="1298" d="M203 0h186v315l217 263l406 -578h225l-510 729l481 586h-233l-586 -715v715h-186v-1315z" />
<glyph unicode="L" horiz-adv-x="1103" d="M203 0h839v188h-653v1127h-186v-1315z" />
<glyph unicode="M" horiz-adv-x="1634" d="M203 0v1335l622 -583l607 583v-1335h-187v893l-420 -406l-436 412v-899h-186z" />
<glyph unicode="N" horiz-adv-x="1527" d="M203 0h186v885l936 -885v1315h-184v-885l-938 885v-1315z" />
<glyph unicode="O" horiz-adv-x="1744" d="M195 657q0 -139 53 -264.5t143.5 -216t216 -143.5t264.5 -53t264.5 53t216 143.5t144 216t53.5 264.5t-53.5 264.5t-144 216t-216 144t-264.5 53.5t-264.5 -53.5t-216 -144t-143.5 -216t-53 -264.5zM383 657q0 134 65.5 248.5t178 182t245.5 67.5q134 0 248.5 -67.5 t182 -182t67.5 -248.5q0 -133 -67.5 -245.5t-182 -178t-248.5 -65.5q-133 0 -245.5 65.5t-178 178t-65.5 245.5z" />
<glyph unicode="P" horiz-adv-x="1335" d="M203 0h186v377h285q193 0 330 138t137 335q0 126 -63 233t-170.5 169.5t-233.5 62.5h-471v-1315zM389 563v565h285q113 0 195.5 -82t82.5 -196q0 -118 -82.5 -202.5t-195.5 -84.5h-285z" />
<glyph unicode="Q" horiz-adv-x="1744" d="M195 657q0 183 91 339.5t247 247.5t339 91q137 0 262.5 -54t216.5 -145t145 -216.5t54 -262.5q0 -249 -157 -436l145 -223h-225l-64 96q-163 -114 -377 -114q-183 0 -339 91t-247 247t-91 339zM381 657q0 -134 65.5 -247t178.5 -178.5t247 -65.5q150 0 277 86l-154 233 h222l65 -98q82 125 82 270q0 134 -66 247t-179 179t-247 66t-247 -66t-178.5 -179t-65.5 -247z" />
<glyph unicode="R" horiz-adv-x="1212" d="M203 0h186v375h283h10l246 -375h223l-274 424q119 58 191.5 171t72.5 249q0 128 -63 236.5t-171 171.5t-235 63h-469v-1315zM389 563v563h283q117 0 198.5 -82t81.5 -200q0 -117 -81.5 -199t-198.5 -82h-283z" />
<glyph unicode="S" horiz-adv-x="1267" d="M178 231l121 146q47 -74 124 -133t179 -70q20 -2 39 -2q71 0 119 27q72 40 110 108q8 19 9.5 33t-8 36.5t-35.5 45.5q-29 31 -75 60.5t-71 42t-88 42.5q-199 104 -285 183q-104 99 -104 211q0 59 29 122q71 136 190 197q103 55 211 56q66 0 133 -21q69 -18 148 -76 q103 -77 166 -166l-117 -143q-107 130 -205 180q-68 36 -130 36q-54 0 -103 -28q-34 -17 -64.5 -49.5t-50.5 -69.5q-12 -21 -6.5 -46t30 -53.5t82.5 -67t150 -87.5q6 -3 30.5 -15.5t32.5 -16.5t30.5 -15.5t32 -17.5t29.5 -17t31 -18.5t28 -19t29.5 -21t26.5 -21.5t27 -24 q107 -100 107 -211q0 -57 -29 -117q-72 -129 -193 -198q-95 -48 -192 -51h-18q-69 0 -140 20q-99 29 -186.5 88.5t-143.5 140.5z" />
<glyph unicode="T" horiz-adv-x="1161" d="M61 1128h424v-1128h187v1128h428v187h-1039v-187z" />
<glyph unicode="U" horiz-adv-x="1445" d="M203 500v20v795h186v-795v-4q0 -150 98 -253t236 -103q139 0 236.5 102t97.5 254v799h186v-795v-20q0 -106 -41 -202.5t-111 -166t-166 -110.5t-202 -41q-105 0 -201 41t-166 110.5t-111.5 166t-41.5 202.5z" />
<glyph unicode="V" horiz-adv-x="1339" d="M61 1315h215l396 -864l395 864h211l-606 -1335z" />
<glyph unicode="W" horiz-adv-x="1955" d="M61 1315h215l396 -864l307 673l307 -673l395 864h213l-608 -1335l-307 675l-307 -675z" />
<glyph unicode="X" horiz-adv-x="1169" d="M61 0l412 659l-412 656h224l301 -477l299 477h223l-410 -656l410 -659h-221l-301 481l-303 -481h-222z" />
<glyph unicode="Y" horiz-adv-x="1228" d="M61 1315h215l340 -752l336 752h215l-460 -1002v-313h-187v313z" />
<glyph unicode="Z" horiz-adv-x="1300" d="M102 0l740 1126h-668v189h1024l-739 -1127h712v-188h-1069z" />
<glyph unicode="[" horiz-adv-x="927" d="M225 -262h373v186h-186v1487h139l151 186h-477v-1859z" />
<glyph unicode="\" horiz-adv-x="1271" d="M195 1393h190l692 -1514h-182z" />
<glyph unicode="]" horiz-adv-x="927" d="M225 -262h477v1859h-372v-186h186v-1487h-139z" />
<glyph unicode="^" horiz-adv-x="829" d="M113 934l303 534l301 -534h-144l-157 283l-162 -283h-141z" />
<glyph unicode="_" horiz-adv-x="1925" d="M225 0v-186h1475v186h-1475z" />
<glyph unicode="{" horiz-adv-x="1120" d="M225 725h154v524q0 139 69 258t188 188.5t259 69.5v-182q-137 0 -233.5 -100.5t-96.5 -249.5v-1389l-186 -233v874z" />
<glyph unicode="|" horiz-adv-x="591" d="M203 -309h186v1960h-186v-1960z" />
<glyph unicode="}" horiz-adv-x="1122" d="M225 -231q139 0 235.5 103.5t96.5 258.5v1417l193 234v-1057h147l-147 -227v-383q0 -143 -70.5 -264t-191.5 -191t-263 -70v179z" />
<glyph unicode="&#xa1;" horiz-adv-x="638" d="M225 1243q0 38 28 65t66 27q37 0 65 -27t28 -65q0 -39 -28 -66.5t-65 -27.5q-39 0 -66.5 27.5t-27.5 66.5zM227 0h187v942h-187v-942z" />
<glyph unicode="&#xa2;" horiz-adv-x="843" d="M113 665q0 106 60 190.5t156 120.5v123h186v-109q68 -15 124 -55t91 -99l-124 -97q-21 46 -64.5 74t-96.5 28q-74 0 -125.5 -51.5t-51.5 -124.5t52 -125t125 -52q53 0 96.5 28t64.5 74l124 -96q-36 -59 -92 -99.5t-123 -54.5v-111h-186v124q-96 36 -156 121t-60 191z" />
<glyph unicode="&#xa3;" horiz-adv-x="1228" />
<glyph unicode="&#xa4;" horiz-adv-x="1677" d="M225 1055l170 170l127 -125q145 94 318 94t315 -94l127 125l170 -170l-127 -125q48 -72 74 -160q32 -118 12.5 -243.5t-86.5 -229.5l125 -127l-170 -170l-125 127q-143 -94 -315 -94q-169 0 -316 94l-127 -127l-170 170l125 127q-67 104 -86 229.5t15 243.5q22 88 71 160 zM515.5 615q-0.5 -102 55.5 -185q46 -65 118 -102t151 -37q80 0 150 36.5t116 102.5q57 84 56 185.5t-58 183.5q-44 64 -115 100.5t-149 36.5t-150 -36.5t-117 -100.5q-57 -82 -57.5 -184z" />
<glyph unicode="&#xa5;" horiz-adv-x="1228" d="M61 1315h213l342 -752l338 752h213l-252 -547h152v-172h-229l-62 -133h291v-172h-358v-291h-189v291h-358v172h289l-60 133h-229v172h149z" />
<glyph unicode="&#xa7;" horiz-adv-x="1161" d="M204.5 1011.5q-14.5 103.5 41.5 190.5q41 68 108.5 100.5t139.5 32.5q169 0 254 -149l-84 -105q-8 51 -60 93.5t-110 42.5q-74 0 -121 -58q-46 -57 -39.5 -127t53.5 -110q106 77 250 61q98 -17 172.5 -81t101.5 -157q47 -148 -47 -292q73 -60 88 -154q21 -104 -34 -193 q-40 -65 -104 -95.5t-132 -30.5q-72 0 -138.5 39t-101.5 102l80 100q9 -49 57.5 -89t102.5 -40q66 0 117 55q41 54 35.5 120.5t-48.5 103.5q-17 -14 -28 -21t-40 -21.5t-68.5 -19.5t-88.5 -2q-97 6 -178 68q-79 58 -115 151q-60 160 33 305q-82 77 -96.5 180.5zM398 647 q0 -59 32 -108q36 -53 96.5 -72t124.5 2q55 21 90 70.5t35 97.5q0 75 -44 129t-111 65q-54 10 -106.5 -10.5t-84.5 -64.5q-32 -50 -32 -109z" />
<glyph unicode="&#xa9;" horiz-adv-x="1744" d="M195 657q0 -184 90.5 -340t246.5 -246.5t340 -90.5q138 0 263.5 53.5t216.5 144t144.5 216t53.5 263.5t-53.5 263.5t-144.5 216.5t-216.5 144.5t-263.5 53.5t-263.5 -53.5t-216 -144.5t-144 -216.5t-53.5 -263.5zM352 657q0 140 70 260t190 190.5t260 70.5t260 -70.5 t190.5 -190.5t70.5 -260t-70.5 -260t-190.5 -190t-260 -70t-260 70t-190 190t-70 260zM549 657q0 138 97.5 235t234.5 97q77 0 147 -34.5t117 -96.5l22 -31l-125 -94l-20 31q-55 67 -141 67q-74 0 -126.5 -50.5t-52.5 -123.5t52.5 -123.5t126.5 -50.5q86 0 141 68l20 31 l125 -95l-22 -30q-47 -62 -117 -96.5t-147 -34.5q-137 0 -234.5 96.5t-97.5 234.5z" />
<glyph unicode="&#xab;" horiz-adv-x="1331" d="M225 539l269 407h186l-266 -407l266 -408h-186zM649 539l269 407h188l-266 -407l266 -408h-188z" />
<glyph unicode="&#xac;" horiz-adv-x="1419" d="M203 537v190h1014v-569h-187v379h-827z" />
<glyph unicode="&#xad;" d="M225 539h609v186h-609v-186z" />
<glyph unicode="&#xae;" horiz-adv-x="1744" d="M195 657q0 -184 90.5 -340t246.5 -246.5t340 -90.5q138 0 263.5 53.5t216.5 144t144.5 216t53.5 263.5t-53.5 263.5t-144.5 216.5t-216.5 144.5t-263.5 53.5t-263.5 -53.5t-216 -144.5t-144 -216.5t-53.5 -263.5zM352 657q0 140 69.5 260t189.5 190.5t261 70.5 q140 0 260 -70.5t190.5 -190.5t70.5 -260q0 -141 -70.5 -261t-190.5 -189.5t-260 -69.5q-106 0 -202 41t-166 111t-111 166t-41 202zM647 342v635h238q98 0 167.5 -70t69.5 -170q0 -57 -26 -108t-70 -82l135 -205h-186l-107 158h-65v-158h-156zM803 657h82q35 0 58.5 22.5 t23.5 57.5q0 36 -23.5 61t-58.5 25h-82v-166z" />
<glyph unicode="&#xb0;" horiz-adv-x="811" d="M113 1040q0 122 86.5 208.5t208.5 86.5q121 0 205.5 -86.5t84.5 -208.5t-84 -206t-206 -84t-208.5 84.5t-86.5 205.5zM258 1040q0 -61 44 -105t106 -44t105.5 43.5t43.5 105.5t-44 106t-105 44q-62 0 -106 -44t-44 -106z" />
<glyph unicode="&#xb1;" horiz-adv-x="1241" d="M203 0v170h835v-170h-835zM203 805v186h323v324h187v-324h325v-186h-325v-326h-187v326h-323z" />
<glyph unicode="&#xb6;" horiz-adv-x="1386" d="M203 850q0 -215 128.5 -344t360.5 -129v-377h187v1315h-209q-126 0 -233.5 -62.5t-170.5 -169.5t-63 -233zM997 0h187v1315h-187v-1315z" />
<glyph unicode="&#xb7;" horiz-adv-x="604" d="M195 563q0 44 32 75.5t76 31.5q43 0 75 -31.5t32 -75.5t-32 -75t-75 -31q-44 0 -76 31t-32 75z" />
<glyph unicode="&#xbb;" horiz-adv-x="1331" d="M225 131l267 408l-267 407h189l268 -407l-268 -408h-189zM651 131l267 408l-267 407h187l268 -407l-268 -408h-187z" />
<glyph unicode="&#xbc;" horiz-adv-x="1714" d="M203 518v686l149 131v-817h-149zM209 0l825 1315h180l-831 -1315h-174zM848 205l373 598h163v-447h127v-151h-127v-205h-151v205h-385zM1106 356h127v199z" />
<glyph unicode="&#xbd;" horiz-adv-x="1703" d="M203 520v672l145 123v-795h-145zM221 2l797 1268h174l-799 -1268h-172zM944 0l363 451q13 14 23.5 34.5t10.5 28.5q0 38 -33.5 69t-74.5 31q-43 0 -77 -30t-34 -68v-47h-147v47q0 102 78 174t180 72q103 0 178.5 -73t75.5 -173q0 -73 -43 -125l-203 -250h260v-141h-557z " />
<glyph unicode="&#xbe;" horiz-adv-x="2002" d="M203 772v19h149v-19q0 -40 42 -78.5t87 -38.5q48 0 90 45q38 47 29 103q-6 55 -47 84q-32 24 -82 29.5t-106 -11.5l-54 -18l176 278h-241v150h512l-174 -279q23 -6 59 -30q92 -71 109 -175q18 -101 -37 -192q-35 -58 -98.5 -92.5t-135.5 -34.5q-113 0 -194 72 q-29 30 -47 61q-37 61 -37 127zM506 0l829 1315h183l-832 -1315h-180zM1130 205l381 604h162v-453h127v-151h-127v-205h-155v205h-388zM1393 356h125v199z" />
<glyph unicode="&#xbf;" horiz-adv-x="1312" d="M227.5 328.5q-5.5 67.5 4 126.5t30.5 106q56 115 135 174q69 55 158 74v190h184v-354h-47q-109 -3 -186 -59q-51 -37 -77.5 -94t-18.5 -123.5t55 -120.5q76 -90 188 -90q94 0 173 72t79 157h182q0 -101 -51 -192q-41 -63 -82 -101q-61 -57 -140 -88t-161 -31 q-153 0 -284 101q-64 49 -100 117t-41.5 135.5zM555 1243q0 38 27.5 65t64.5 27q38 0 66 -27t28 -65q0 -39 -27.5 -66.5t-66.5 -27.5q-37 0 -64.5 27.5t-27.5 66.5z" />
<glyph unicode="&#xd7;" horiz-adv-x="1103" d="M203 420l223 223l-219 219l127 127l219 -217l217 217l131 -133l-217 -217l217 -217l-127 -127l-217 217l-223 -223z" />
<glyph unicode="&#xf7;" horiz-adv-x="1380" d="M225 539h930v186h-930v-186zM586 274q0 44 32 75.5t76 31.5q43 0 75 -31.5t32 -75.5t-32 -75t-75 -31q-44 0 -76 31t-32 75zM586 985q0 44 32 75.5t76 31.5q43 0 75 -31.5t32 -75.5t-32 -75t-75 -31q-44 0 -76 31t-32 75z" />
<glyph unicode="&#x2000;" horiz-adv-x="891" />
<glyph unicode="&#x2001;" horiz-adv-x="1782" />
<glyph unicode="&#x2002;" horiz-adv-x="891" />
<glyph unicode="&#x2003;" horiz-adv-x="1782" />
<glyph unicode="&#x2004;" horiz-adv-x="594" />
<glyph unicode="&#x2005;" horiz-adv-x="445" />
<glyph unicode="&#x2006;" horiz-adv-x="297" />
<glyph unicode="&#x2007;" horiz-adv-x="297" />
<glyph unicode="&#x2008;" horiz-adv-x="222" />
<glyph unicode="&#x2009;" horiz-adv-x="356" />
<glyph unicode="&#x200a;" horiz-adv-x="99" />
<glyph unicode="&#x2010;" d="M225 539h609v186h-609v-186z" />
<glyph unicode="&#x2011;" d="M225 539h609v186h-609v-186z" />
<glyph unicode="&#x2012;" d="M225 539h609v186h-609v-186z" />
<glyph unicode="&#x2013;" horiz-adv-x="1359" d="M225 539h910v186h-910v-186z" />
<glyph unicode="&#x2014;" horiz-adv-x="1556" d="M225 539h1106v186h-1106v-186z" />
<glyph unicode="&#x2018;" horiz-adv-x="608" d="M225 1142h158v367h-158v-367z" />
<glyph unicode="&#x2019;" horiz-adv-x="608" d="M225 1142h158v367h-158v-367z" />
<glyph unicode="&#x201a;" horiz-adv-x="608" d="M225 -43v-367h158v367h-158z" />
<glyph unicode="&#x201c;" horiz-adv-x="866" d="M123 1219q0 20 8 36l107 248h118l-84 -188q27 -11 45.5 -37t18.5 -59q0 -43 -31.5 -73t-75.5 -30t-75 30t-31 73zM510 1219q0 20 8 36l107 248h118l-84 -188q27 -11 45.5 -37t18.5 -59q0 -43 -31.5 -73t-75.5 -30t-75 30t-31 73z" />
<glyph unicode="&#x201d;" horiz-adv-x="866" d="M123 1126l84 189q-27 11 -45.5 37t-18.5 59q0 43 31.5 72.5t75.5 29.5t75 -29.5t31 -72.5q0 -21 -8 -37l-106 -248h-119zM510 1126l84 189q-27 11 -45.5 37t-18.5 59q0 43 31.5 72.5t75.5 29.5t75 -29.5t31 -72.5q0 -21 -8 -37l-106 -248h-119z" />
<glyph unicode="&#x201e;" horiz-adv-x="866" d="M123 -188l84 188q-27 11 -45.5 37t-18.5 59q0 43 31.5 73t75.5 30t75 -30t31 -73q0 -21 -8 -37l-106 -247h-119zM510 -188l84 188q-27 11 -45.5 37t-18.5 59q0 43 31.5 73t75.5 30t75 -30t31 -73q0 -21 -8 -37l-106 -247h-119z" />
<glyph unicode="&#x2022;" horiz-adv-x="974" d="M195 563q0 122 86.5 208.5t207.5 86.5t206 -86.5t85 -208.5q0 -121 -85 -206t-206 -85q-122 0 -208 85t-86 206zM340 563q0 -61 44 -105t105 -44q62 0 106 44t44 105t-44.5 105.5t-105.5 44.5t-105 -44t-44 -106z" />
<glyph unicode="&#x2026;" horiz-adv-x="1724" d="M195 94q0 38 28 65t66 27t66 -27t28 -65q0 -39 -27.5 -66.5t-66.5 -27.5t-66.5 27.5t-27.5 66.5zM768 94q0 38 28 65t66 27t66 -27t28 -65q0 -39 -27.5 -66.5t-66.5 -27.5t-66.5 27.5t-27.5 66.5zM1341 94q0 38 28 65t67 27q38 0 66 -27t28 -65q0 -39 -27.5 -66.5 t-66.5 -27.5t-67 27.5t-28 66.5z" />
<glyph unicode="&#x202f;" horiz-adv-x="356" />
<glyph unicode="&#x2039;" horiz-adv-x="985" d="M225 537l320 391h215l-320 -391l320 -392h-215z" />
<glyph unicode="&#x203a;" horiz-adv-x="985" d="M225 145l320 392l-320 391h215l320 -391l-320 -392h-215z" />
<glyph unicode="&#x205f;" horiz-adv-x="445" />
<glyph unicode="&#x20ac;" horiz-adv-x="1259" d="M178 446v119h131q-6 50 -6 92t2 60h-127v121h150q61 218 241.5 357.5t411.5 139.5q47 0 100 -6v-188q-58 10 -100 10q-154 0 -279 -87t-178 -226h342v-121h-374q-5 -45 -5 -60q0 -18 9 -92h370v-119h-329q60 -127 178.5 -203.5t265.5 -76.5q53 0 100 8v-186 q-47 -8 -100 -8q-223 0 -400 130t-245 336h-158z" />
<glyph unicode="&#x2122;" horiz-adv-x="1034" d="M113 1214v101h362v-101h-131v-296h-104v296h-127zM537 918v417l196 -157l189 157v-417h-103v200l-86 -82l-90 84v-202h-106z" />
<glyph unicode="&#x25fc;" horiz-adv-x="1024" d="M0 0z" />
</font>
</defs>
</svg>
