<?xml version="1.0" encoding="UTF-8"?>
<svg width="1440px" height="482px" viewBox="0 0 1440 482" version="1.1" xmlns="http://www.w3.org/2000/svg" xmlns:xlink="http://www.w3.org/1999/xlink">
    <!-- Generator: Sketch 48.2 (47327) - http://www.bohemiancoding.com/sketch -->
    <title>f__footer</title>
    <desc>Created with Sketch.</desc>
    <defs>
        <radialGradient cx="50%" cy="0%" fx="50%" fy="0%" r="187.985941%" gradientTransform="translate(0.500000,0.000000),scale(0.334700,1.000000),rotate(90.000000),scale(1.000000,0.795595),translate(-0.500000,-0.000000)" id="radialGradient-1">
            <stop stop-color="#008FD6" offset="0%"></stop>
            <stop stop-color="#7825B8" offset="100%"></stop>
        </radialGradient>
        <path d="M0.0934612981,1.7057189e-13 L1439.81308,0 L1440.09346,482 C960.090629,332.917562 480.18409,332.917521 0.373845192,481.999876 C8.74855743e-14,482.116034 -0.0934612981,321.449409 0.0934612981,1.7057189e-13 Z" id="path-2"></path>
    </defs>
    <g id="Desktop-HD-Copy" stroke="none" stroke-width="1" fill="none" fill-rule="evenodd" transform="translate(0.000000, -2022.000000)">
        <g id="f__footer" transform="translate(0.000000, 2022.000000)">
            <mask id="mask-3" fill="white">
                <use xlink:href="#path-2"></use>
            </mask>
            <use id="BG-2" fill="url(#radialGradient-1)" transform="translate(720.046731, 241.000000) scale(1, -1) translate(-720.046731, -241.000000) " xlink:href="#path-2"></use>
            <g id="Lines-2" opacity="0.0882586051" style="mix-blend-mode: overlay;" mask="url(#mask-3)" fill="#7825B8">
                <g transform="translate(-764.000000, -940.000000)" id="Bars-2">
                    <path d="M1635.56059,1568.89375 L2918.75856,1568.89375 L2918.75856,1614.80593 L1635.56059,1614.80593 L1635.56059,1568.89375 Z M770.281712,1069.32476 L2053.47968,1069.32476 L2053.47968,1115.23694 L770.281712,1115.23694 L770.281712,1069.32476 Z M626.068566,986.063263 L1909.26654,986.063263 L1909.26654,1031.97544 L626.068566,1031.97544 L626.068566,986.063263 Z M481.855421,902.801765 L1765.05339,902.801765 L1765.05339,948.713946 L481.855421,948.713946 L481.855421,902.801765 Z M337.642275,819.540266 L1620.84024,819.540266 L1620.84024,865.452448 L337.642275,865.452448 L337.642275,819.540266 Z M193.429129,736.278768 L1476.6271,736.278768 L1476.6271,782.190949 L193.429129,782.190949 L193.429129,736.278768 Z M49.2159836,653.017269 L1332.41395,653.017269 L1332.41395,698.929451 L49.2159836,698.929451 L49.2159836,653.017269 Z M914.494858,1152.58626 L2197.69283,1152.58626 L2197.69283,1198.49844 L914.494858,1198.49844 L914.494858,1152.58626 Z M1058.708,1235.84776 L2341.90597,1235.84776 L2341.90597,1281.75994 L1058.708,1281.75994 L1058.708,1235.84776 Z M1202.92115,1319.10926 L2486.11912,1319.10926 L2486.11912,1365.02144 L1202.92115,1365.02144 L1202.92115,1319.10926 Z M1347.13429,1402.37076 L2630.33226,1402.37076 L2630.33226,1448.28294 L1347.13429,1448.28294 L1347.13429,1402.37076 Z M1491.34744,1485.63225 L2774.54541,1485.63225 L2774.54541,1531.54444 L1491.34744,1531.54444 L1491.34744,1485.63225 Z" transform="translate(1483.987269, 1133.911602) rotate(-30.000000) translate(-1483.987269, -1133.911602) "></path>
                </g>
            </g>
        </g>
    </g>
</svg>