<svg class="f__footer--bg" viewBox="0 0 720 722" version="1.1" xmlns="http://www.w3.org/2000/svg" xmlns:xlink="http://www.w3.org/1999/xlink">
    <defs>
        <radialGradient cx="50%" cy="0%" fx="50%" fy="0%" r="94.569619%" gradientTransform="translate(0.500000,0.000000),scale(1.000000,0.996701),rotate(90.000000),scale(1.000000,1.069354),translate(-0.500000,-0.000000)" id="radialGradient-1">
            <stop stop-color="#008FD6" offset="0%"></stop>
            <stop stop-color="#7825B8" offset="100%"></stop>
        </radialGradient>
        <path d="M0.186790744,0 L719.538819,0 L719.538819,721.873656 C479.706697,647.385018 239.922687,647.384997 0.186790744,721.873594 C-7.57727214e-14,721.931632 -1.28452804e-13,481.307101 0.186790744,0 Z" id="path-2"></path>
    </defs>
    <g id="Page-1" stroke="none" stroke-width="1" fill="none" fill-rule="evenodd" transform="translate(0.000000, -2022.000000)">
        <g id="Footer-bg-mobile" transform="translate(0.000000, 2022.000000)">
            <mask id="mask-3" fill="white">
                <use xlink:href="#path-2"></use>
            </mask>
            <use id="BG-2" fill="url(#radialGradient-1)" transform="translate(359.792759, 360.936828) scale(1, -1) translate(-359.792759, -360.936828)" xlink:href="#path-2"></use>
            <g id="Lines-2" opacity="0.0882586051" transform="translate(359.792759, 360.936828) scale(1, -1) translate(-359.792759, -360.936828) " style="mix-blend-mode: overlay;" mask="url(#mask-3)" fill="#7825B8">
                <g transform="translate(-1197.730542, -707.668468)" id="Bars-1">
                    <path d="M486.384709,919.577668 L2286.38471,919.577668 L2286.38471,948.237668 L486.384709,948.237668 L486.384709,919.577668 Z M396.302192,867.568503 L2196.30219,867.568503 L2196.30219,896.228503 L396.302192,896.228503 L396.302192,867.568503 Z M306.219675,815.559337 L2106.21968,815.559337 L2106.21968,844.219337 L306.219675,844.219337 L306.219675,815.559337 Z M216.137158,763.550172 L2016.13716,763.550172 L2016.13716,792.210172 L216.137158,792.210172 L216.137158,763.550172 Z M126.054641,711.541006 L1926.05464,711.541006 L1926.05464,740.201006 L126.054641,740.201006 L126.054641,711.541006 Z M35.9721237,659.531841 L1835.97212,659.531841 L1835.97212,688.191841 L35.9721237,688.191841 L35.9721237,659.531841 Z M576.467226,971.586834 L2376.46723,971.586834 L2376.46723,1000.24683 L576.467226,1000.24683 L576.467226,971.586834 Z M666.549744,1023.596 L2466.54974,1023.596 L2466.54974,1052.256 L666.549744,1052.256 L666.549744,1023.596 Z M756.632261,1075.60516 L2556.63226,1075.60516 L2556.63226,1104.26516 L756.632261,1104.26516 L756.632261,1075.60516 Z M846.714778,1127.61433 L2646.71478,1127.61433 L2646.71478,1156.27433 L846.714778,1156.27433 L846.714778,1127.61433 Z M936.797295,1179.6235 L2736.79729,1179.6235 L2736.79729,1208.2835 L936.797295,1208.2835 L936.797295,1179.6235 Z M1026.97212,1231.53184 L2826.97212,1231.53184 L2826.97212,1260.19184 L1026.97212,1260.19184 L1026.97212,1231.53184 Z M1115.97212,1283.53184 L2915.97212,1283.53184 L2915.97212,1312.19184 L1115.97212,1312.19184 L1115.97212,1283.53184 Z M1087.97212,1335.53184 L2887.97212,1335.53184 L2887.97212,1364.19184 L1087.97212,1364.19184 L1087.97212,1335.53184 Z M1058.97212,1387.53184 L2858.97212,1387.53184 L2858.97212,1416.19184 L1058.97212,1416.19184 L1058.97212,1387.53184 Z M1026.97212,1439.53184 L2826.97212,1439.53184 L2826.97212,1468.19184 L1026.97212,1468.19184 L1026.97212,1439.53184 Z M997.972124,1491.53184 L2797.97212,1491.53184 L2797.97212,1520.19184 L997.972124,1520.19184 L997.972124,1491.53184 Z M967.972124,1543.53184 L2767.97212,1543.53184 L2767.97212,1572.19184 L967.972124,1572.19184 L967.972124,1543.53184 Z" transform="translate(1475.972124, 1115.861841) rotate(-30.000000) translate(-1475.972124, -1115.861841) "></path>
                </g>
            </g>
        </g>
    </g>
</svg>
