<svg width="106px" height="103px" viewBox="0 0 106 103" version="1.1" xmlns="http://www.w3.org/2000/svg" xmlns:xlink="http://www.w3.org/1999/xlink">
    <g id="Desktop-HD-Copy" stroke="none" stroke-width="1" fill="none" fill-rule="evenodd" transform="translate(-1035.000000, -970.000000)">
        <path d="M1068.17755,1038.07245 C1070.85156,1038.07245 1070.85591,1033.91214 1068.17755,1033.91214 C1065.50353,1033.91214 1065.49898,1038.07245 1068.17755,1038.07245 Z M1139.44808,1018.71381 C1140.4586,1018.99175 1141.29624,1020.22162 1140.89937,1021.27243 C1139.74599,1024.32722 1136.95956,1026.29101 1133.86734,1027.10491 C1130.74738,1027.92566 1127.51852,1027.36046 1124.57495,1026.16437 C1121.71108,1025.00061 1118.91678,1023.25777 1115.79682,1022.8733 C1109.18879,1022.05898 1104.1217,1027.97561 1100.27713,1032.4607 C1099.5432,1033.31689 1098.08633,1033.20932 1097.33853,1032.4607 C1096.50233,1031.62358 1096.60812,1030.37091 1097.33853,1029.51886 C1099.73264,1026.72604 1102.17996,1023.98193 1105.22621,1021.87908 C1107.93211,1020.01084 1111.17609,1018.6821 1114.49894,1018.65392 C1117.80109,1018.62614 1120.82851,1019.92773 1123.76587,1021.2915 C1126.24196,1022.44116 1128.97291,1023.67 1131.77529,1023.30378 C1133.63609,1023.06087 1136.20824,1021.97773 1136.89207,1020.1667 C1137.2904,1019.11175 1138.28083,1018.39277 1139.44808,1018.71381 Z M1077.7573,996.744119 C1076.08718,999.059828 1074.01293,1001.70073 1073.68727,1004.61997 C1073.46326,1006.63039 1074.29118,1008.92288 1076.38737,1009.4773 C1078.97485,1010.16188 1077.87075,1014.1738 1075.28265,1013.48922 C1071.92771,1012.60174 1069.95864,1009.59813 1069.57004,1006.27618 C1068.76303,999.381908 1075.21661,994.758368 1077.69705,989.010238 C1080.49011,982.537737 1074.68268,977.701549 1070.03855,974.225603 C1069.13693,973.550766 1068.67235,972.441722 1069.29303,971.379311 C1069.81434,970.487267 1071.23643,969.959999 1072.13599,970.633177 C1075.15409,972.892304 1078.21194,975.18625 1080.3189,978.373898 C1082.14554,981.137908 1082.99374,984.443901 1082.41385,987.726681 C1081.81573,991.111019 1079.72182,994.020317 1077.7573,996.744119 Z M1102.95839,1004.66474 C1101.82738,1006.28012 1100.63902,1004.51862 1100.00737,1003.38222 C1099.14736,1001.83503 1098.68216,1000.07125 1098.59914,998.311 C1098.59065,998.128404 1098.58962,997.944772 1098.58838,997.761141 C1098.69086,997.765286 1098.79334,997.769846 1098.89706,997.77855 C1101.94208,998.034308 1104.89828,1001.89368 1102.95839,1004.66474 Z M1094.48232,998.944384 C1092.6002,1000.22089 1091.28224,1002.37639 1090.76259,1004.67614 C1089.69203,1009.41512 1091.75862,1014.14851 1094.2107,1018.09639 C1095.62824,1020.37893 1092.03149,1022.46541 1090.62223,1020.19613 C1086.86316,1014.14333 1084.50238,1006.35971 1088.23847,999.701502 C1089.62868,997.223925 1092.0406,995.229676 1094.75291,994.242085 C1095.54667,990.20799 1097.76211,986.558775 1101.07917,984.01446 C1101.97562,983.326981 1103.41014,983.884301 1103.92233,984.760801 C1104.53887,985.816372 1104.06601,986.924795 1103.1766,987.606885 C1101.23258,989.098323 1099.9024,991.252577 1099.19208,993.597301 C1100.62867,993.711501 1102.04497,994.157523 1103.34678,995.005006 C1105.68334,996.52629 1107.24663,999.030811 1107.58368,1001.79606 C1107.91721,1004.53396 1106.76632,1007.75912 1104.14675,1009.01283 C1100.90237,1010.56583 1097.96583,1008.25986 1096.4189,1005.48217 C1095.30424,1003.48108 1094.66389,1001.22714 1094.48232,998.944384 Z M1116.03076,1011.63674 C1118.70478,1011.63674 1118.70913,1007.47642 1116.03076,1007.47642 C1113.35654,1007.47642 1113.35199,1011.63674 1116.03076,1011.63674 Z M1118.6228,1001.4574 C1115.94857,1001.4574 1115.94423,1005.61793 1118.6228,1005.61793 C1121.29681,1005.61793 1121.30137,1001.4574 1118.6228,1001.4574 Z M1122.68309,1010.92584 C1125.35711,1010.92584 1125.36146,1006.76531 1122.68309,1006.76531 C1120.00887,1006.76531 1120.00452,1010.92584 1122.68309,1010.92584 Z M1053.56196,993.90218 C1056.23619,993.90218 1056.24054,989.741656 1053.56196,989.741656 C1050.88795,989.741656 1050.88339,993.90218 1053.56196,993.90218 Z M1056.154,983.723053 C1053.47998,983.723053 1053.47563,987.883369 1056.154,987.883369 C1058.82822,987.883369 1058.83257,983.723053 1056.154,983.723053 Z M1060.21429,993.19128 C1062.88831,993.19128 1062.89266,989.030757 1060.21429,989.030757 C1057.54028,989.030757 1057.53593,993.19128 1060.21429,993.19128 Z M1050.69665,1048.27044 L1053.72862,1060.27158 L1041.71667,1066.27568 L1050.69665,1048.27044 Z M1065.16628,1019.25891 L1088.68172,1042.80025 L1076.00871,1049.13471 L1072.47076,1040.50216 C1072.03495,1039.43954 1070.82154,1038.93134 1069.75968,1039.3672 C1068.69802,1039.80328 1068.19038,1041.01865 1068.62598,1042.08126 L1072.2807,1050.99818 L1057.5349,1058.36874 L1053.54209,1042.56501 L1061.93058,1025.74571 L1064.23878,1031.37715 C1064.56858,1032.18152 1065.34412,1032.66838 1066.16189,1032.66838 C1066.42461,1032.66838 1066.69189,1032.61822 1066.94985,1032.5121 C1068.01151,1032.07603 1068.51915,1030.86087 1068.08355,1029.79804 L1064.39653,1020.80195 L1065.16628,1019.25891 Z M1037.07855,1073 C1037.39344,1073 1037.71123,1072.92829 1038.00605,1072.78072 L1093.11882,1045.23243 C1093.71672,1044.93377 1094.13451,1044.36547 1094.24155,1043.70514 C1094.349,1043.04481 1094.13244,1042.37329 1093.66,1041.90033 L1066.06521,1014.27515 C1065.59255,1013.80218 1064.92198,1013.58539 1064.26238,1013.69275 C1063.60298,1013.80011 1063.0351,1014.21836 1062.73676,1014.81672 L1035.21899,1069.99039 C1034.81963,1070.79103 1034.97635,1071.75769 1035.60862,1072.39066 C1036.00757,1072.79005 1036.53923,1073 1037.07855,1073 Z M1128.17833,1045.95722 C1128.17833,1043.61022 1130.08571,1041.70115 1132.42971,1041.70115 C1134.77517,1041.70115 1136.68317,1043.61022 1136.68317,1045.95722 C1136.68317,1048.30505 1134.77517,1050.21536 1132.42971,1050.21536 C1130.08571,1050.21536 1128.17833,1048.30505 1128.17833,1045.95722 Z M1140.83912,1045.95722 C1140.83912,1041.31627 1137.0668,1037.54063 1132.42971,1037.54063 C1127.79387,1037.54063 1124.02238,1041.31627 1124.02238,1045.95722 C1124.02238,1050.59921 1127.79387,1054.37589 1132.42971,1054.37589 C1137.0668,1054.37589 1140.83912,1050.59921 1140.83912,1045.95722 Z M1120.37407,985.870052 L1114.9571,980.446905 L1120.37407,975.022515 L1125.7925,980.446905 L1120.37407,985.870052 Z M1130.80887,980.447113 C1130.80887,979.895388 1130.58983,979.366255 1130.2004,978.975986 L1121.84296,970.609342 C1121.45312,970.21928 1120.92436,970 1120.37345,970 C1119.82234,970 1119.29399,970.21928 1118.90415,970.60955 L1110.54878,978.976193 C1109.73743,979.788443 1109.73763,981.105368 1110.54899,981.918032 L1118.90436,990.282603 C1119.31014,990.688831 1119.8418,990.891738 1120.37366,990.891738 C1120.90532,990.891738 1121.43718,990.688831 1121.84275,990.28281 L1130.20019,981.918239 C1130.59024,981.528177 1130.80887,980.998837 1130.80887,980.447113 Z" id="h_SassStyle-icon" fill="#008FD6"></path>
    </g>
</svg>
