<svg class="s__hero--bg" viewBox="0 0 730 730" version="1.1" xmlns="http://www.w3.org/2000/svg" xmlns:xlink="http://www.w3.org/1999/xlink">
    <defs>
        <filter x="-1.7%" y="-1.0%" width="103.5%" height="104.1%" filterUnits="objectBoundingBox" id="filter-1">
            <feOffset dx="0" dy="10" in="SourceAlpha" result="shadowOffsetOuter1"></feOffset>
            <feGaussianBlur stdDeviation="2.5" in="shadowOffsetOuter1" result="shadowBlurOuter1"></feGaussianBlur>
            <feColorMatrix values="0 0 0 0 0   0 0 0 0 0   0 0 0 0 0  0 0 0 0.130406476 0" type="matrix" in="shadowBlurOuter1" result="shadowMatrixOuter1"></feColorMatrix>
            <feMerge>
                <feMergeNode in="shadowMatrixOuter1"></feMergeNode>
                <feMergeNode in="SourceGraphic"></feMergeNode>
            </feMerge>
        </filter>
        <radialGradient cx="48%" cy="35%" fx="48%" fy="35%" r="66%" gradientTransform="translate(0.48,0.35),scale(1,0.99),rotate(90),scale(1,0.93),translate(-0.48,-0.35)" id="radialGradient-2">
            <stop stop-color="#008FD6" offset="0%"></stop>
            <stop stop-color="#7825B8" offset="100%"></stop>
        </radialGradient>
        <path d="M0.499651372,0.656176457 L719.997627,0.656176457 L719.997627,723.310059 C480.116846,648.820801 240.284187,648.820781 0.499651372,723.309998 C0.312822731,723.368036 0.312822731,482.483429 0.499651372,0.656176457 Z" id="path-3"></path>
    </defs>
    <g id="Page-2" stroke="none" filter="url(#filter-1)"  stroke-width="0" fill="none" fill-rule="evenodd">
        <g id="Hero-bg-mobile" transform="translate(5, 0)">
            <use id="BG-1" fill="#7825B8" xlink:href="#path-3"></use>
        </g>
    </g>
    <g id="Page-1" stroke="none" stroke-width="1" fill="none" fill-rule="evenodd">
        <g id="Hero-bg-mobile" transform="translate(5, 0)">
            <mask id="mask-4" fill="white">
                <use xlink:href="#path-3"></use>
            </mask>
            <use id="BG-1" fill="url(#radialGradient-2)" xlink:href="#path-3"></use>
            <g id="Lines-1" opacity="0.05" style="mix-blend-mode: overlay;" mask="url(#mask-4)" fill="#7825B8">
                <g transform="translate(-1242, -690)" id="Bars-1">
                    <path d="M486.260914,919.446433 L2286.26091,919.446433 L2286.26091,948.106433 L486.260914,948.106433 L486.260914,919.446433 Z M396.178397,867.437268 L2196.1784,867.437268 L2196.1784,896.097268 L396.178397,896.097268 L396.178397,867.437268 Z M306.09588,815.428102 L2106.09588,815.428102 L2106.09588,844.088102 L306.09588,844.088102 L306.09588,815.428102 Z M216.013363,763.418937 L2016.01336,763.418937 L2016.01336,792.078937 L216.013363,792.078937 L216.013363,763.418937 Z M125.930846,711.409771 L1925.93085,711.409771 L1925.93085,740.069771 L125.930846,740.069771 L125.930846,711.409771 Z M35.8483287,659.400606 L1835.84833,659.400606 L1835.84833,688.060606 L35.8483287,688.060606 L35.8483287,659.400606 Z M576.343431,971.455599 L2376.34343,971.455599 L2376.34343,1000.1156 L576.343431,1000.1156 L576.343431,971.455599 Z M666.425948,1023.46476 L2466.42595,1023.46476 L2466.42595,1052.12476 L666.425948,1052.12476 L666.425948,1023.46476 Z M756.508466,1075.47393 L2556.50847,1075.47393 L2556.50847,1104.13393 L756.508466,1104.13393 L756.508466,1075.47393 Z M846.590983,1127.4831 L2646.59098,1127.4831 L2646.59098,1156.1431 L846.590983,1156.1431 L846.590983,1127.4831 Z M936.6735,1179.49226 L2736.6735,1179.49226 L2736.6735,1208.15226 L936.6735,1208.15226 L936.6735,1179.49226 Z M1026.84833,1231.40061 L2826.84833,1231.40061 L2826.84833,1260.06061 L1026.84833,1260.06061 L1026.84833,1231.40061 Z M1115.84833,1283.40061 L2915.84833,1283.40061 L2915.84833,1312.06061 L1115.84833,1312.06061 L1115.84833,1283.40061 Z M1087.84833,1335.40061 L2887.84833,1335.40061 L2887.84833,1364.06061 L1087.84833,1364.06061 L1087.84833,1335.40061 Z M1058.84833,1387.40061 L2858.84833,1387.40061 L2858.84833,1416.06061 L1058.84833,1416.06061 L1058.84833,1387.40061 Z M1026.84833,1439.40061 L2826.84833,1439.40061 L2826.84833,1468.06061 L1026.84833,1468.06061 L1026.84833,1439.40061 Z M997.848329,1491.40061 L2797.84833,1491.40061 L2797.84833,1520.06061 L997.848329,1520.06061 L997.848329,1491.40061 Z M967.848329,1543.40061 L2767.84833,1543.40061 L2767.84833,1572.06061 L967.848329,1572.06061 L967.848329,1543.40061 Z" transform="translate(1475.848329, 1115.730606) rotate(-30.000000) translate(-1475.848329, -1115.730606) "></path>
                </g>
            </g>
        </g>
    </g>
</svg>
