<svg viewBox="0 0 900 600" version="1.1" xmlns="http://www.w3.org/2000/svg" xmlns:xlink="http://www.w3.org/1999/xlink">
    <defs>
        <radialGradient cx="50%" cy="-8.84496189%" fx="50%" fy="-8.84496189%" r="146.792434%" gradientTransform="translate(0.500000,-0.088450),scale(0.666667,1.000000),rotate(90.000000),scale(1.000000,0.862118),translate(-0.500000,0.088450)" id="radialGradient-1">
            <stop stop-color="#008FD6" offset="0%"></stop>
            <stop stop-color="#7825B8" offset="100%"></stop>
        </radialGradient>
        <path d="M0,0 L900,0 L900,599.904105 C300,600.031965 1.56612669e-11,600.031965 1.07936132e-11,599.904105 C3.12148323e-12,599.702579 -4.76387846e-13,399.734544 0,0 Z" id="path-2"></path>
    </defs>
    <g id="Page-1" stroke="none" stroke-width="1" fill="none" fill-rule="evenodd">
        <g id="s__hero--bg-copy-2">
            <mask id="mask-3" fill="white">
                <use xlink:href="#path-2"></use>
            </mask>
            <use id="BG-1" fill="url(#radialGradient-1)" xlink:href="#path-2"></use>
            <g id="Lines-1" opacity="0.0503849638" style="mix-blend-mode: overlay;" mask="url(#mask-3)" fill="#7825B8">
                <g transform="translate(-477.000000, -486.000000)" id="Bars-1">
                    <path d="M480.865912,668.582914 L1282.9728,668.582914 L1282.9728,697.261198 L480.865912,697.261198 L480.865912,668.582914 Z M390.72054,616.53746 L1192.82743,616.53746 L1192.82743,645.215743 L390.72054,645.215743 L390.72054,616.53746 Z M300.575169,564.492005 L1102.68206,564.492005 L1102.68206,593.170289 L300.575169,593.170289 L300.575169,564.492005 Z M210.429797,512.446551 L1012.53669,512.446551 L1012.53669,541.124834 L210.429797,541.124834 L210.429797,512.446551 Z M120.284425,460.401096 L922.391315,460.401096 L922.391315,489.07938 L120.284425,489.07938 L120.284425,460.401096 Z M30.1390538,408.355642 L832.245944,408.355642 L832.245944,437.033925 L30.1390538,437.033925 L30.1390538,408.355642 Z M571.011283,720.628369 L1373.11817,720.628369 L1373.11817,749.306652 L571.011283,749.306652 L571.011283,720.628369 Z M661.156655,772.673824 L1463.26354,772.673824 L1463.26354,801.352107 L661.156655,801.352107 L661.156655,772.673824 Z M751.302026,824.719278 L1553.40892,824.719278 L1553.40892,853.397561 L751.302026,853.397561 L751.302026,824.719278 Z M841.447398,876.764733 L1643.55429,876.764733 L1643.55429,905.443016 L841.447398,905.443016 L841.447398,876.764733 Z M931.59277,928.810187 L1733.69966,928.810187 L1733.69966,957.488471 L931.59277,957.488471 L931.59277,928.810187 Z M1021.73814,980.855642 L1823.84503,980.855642 L1823.84503,1009.53393 L1021.73814,1009.53393 L1021.73814,980.855642 Z" transform="translate(926.992042, 708.944783) rotate(-30.000000) translate(-926.992042, -708.944783) "></path>
                </g>
            </g>
        </g>
    </g>
</svg>
