<?xml version="1.0" encoding="UTF-8"?>
<svg width="1440px" height="560px" viewBox="0 0 1440 560" version="1.1" xmlns="http://www.w3.org/2000/svg" xmlns:xlink="http://www.w3.org/1999/xlink">
    <!-- Generator: Sketch 48.2 (47327) - http://www.bohemiancoding.com/sketch -->
    <title>s__hero--bg</title>
    <desc>Created with Sketch.</desc>
    <defs>
        <filter x="-0.9%" y="-1.4%" width="101.7%" height="105.5%" filterUnits="objectBoundingBox" id="filter-1">
            <feOffset dx="0" dy="10" in="SourceAlpha" result="shadowOffsetOuter1"></feOffset>
            <feGaussianBlur stdDeviation="2.5" in="shadowOffsetOuter1" result="shadowBlurOuter1"></feGaussianBlur>
            <feColorMatrix values="0 0 0 0 0   0 0 0 0 0   0 0 0 0 0  0 0 0 0.130406476 0" type="matrix" in="shadowBlurOuter1" result="shadowMatrixOuter1"></feColorMatrix>
            <feMerge>
                <feMergeNode in="shadowMatrixOuter1"></feMergeNode>
                <feMergeNode in="SourceGraphic"></feMergeNode>
            </feMerge>
        </filter>
        <radialGradient cx="50%" cy="-8.84496189%" fx="50%" fy="-8.84496189%" r="146.792434%" gradientTransform="translate(0.500000,-0.088450),scale(0.378399,1.000000),rotate(90.000000),scale(1.000000,0.862118),translate(-0.500000,0.088450)" id="radialGradient-2">
            <stop stop-color="#008FD6" offset="0%"></stop>
            <stop stop-color="#7825B8" offset="100%"></stop>
        </radialGradient>
        <path d="M1,0 L1441,0 L1441,545.000124 C960.903688,395.917659 480.903688,395.917617 1,545 C0.626082002,545.116158 0.626082002,363.449491 1,0 Z" id="path-3"></path>
    </defs>
    <g id="Desktop-HD-Copy" stroke="none" stroke-width="1" fill="none" fill-rule="evenodd">
        <g id="s__hero--bg" filter="url(#filter-1)" transform="translate(-1.000000, 0.000000)">
            <mask id="mask-4" fill="white">
                <use xlink:href="#path-3"></use>
            </mask>
            <use id="BG-1" fill="url(#radialGradient-2)" xlink:href="#path-3"></use>
            <g id="Lines-1" opacity="0.0503849638" style="mix-blend-mode: overlay;" mask="url(#mask-4)" fill="#7825B8">
                <g transform="translate(-1128.000000, -1195.000000)" id="Bars-1">
                    <path d="M961.731823,1337.16583 L2565.9456,1337.16583 L2565.9456,1394.5224 L961.731823,1394.5224 L961.731823,1337.16583 Z M781.44108,1233.07492 L2385.65486,1233.07492 L2385.65486,1290.43149 L781.44108,1290.43149 L781.44108,1233.07492 Z M601.150337,1128.98401 L2205.36412,1128.98401 L2205.36412,1186.34058 L601.150337,1186.34058 L601.150337,1128.98401 Z M420.859594,1024.8931 L2025.07337,1024.8931 L2025.07337,1082.24967 L420.859594,1082.24967 L420.859594,1024.8931 Z M240.568851,920.802193 L1844.78263,920.802193 L1844.78263,978.158759 L240.568851,978.158759 L240.568851,920.802193 Z M60.2781077,816.711283 L1664.49189,816.711283 L1664.49189,874.06785 L60.2781077,874.06785 L60.2781077,816.711283 Z M1142.02257,1441.25674 L2746.23635,1441.25674 L2746.23635,1498.6133 L1142.02257,1498.6133 L1142.02257,1441.25674 Z M1322.31331,1545.34765 L2926.52709,1545.34765 L2926.52709,1602.70421 L1322.31331,1602.70421 L1322.31331,1545.34765 Z M1502.60405,1649.43856 L3106.81783,1649.43856 L3106.81783,1706.79512 L1502.60405,1706.79512 L1502.60405,1649.43856 Z M1682.8948,1753.52947 L3287.10858,1753.52947 L3287.10858,1810.88603 L1682.8948,1810.88603 L1682.8948,1753.52947 Z M1863.18554,1857.62037 L3467.39932,1857.62037 L3467.39932,1914.97694 L1863.18554,1914.97694 L1863.18554,1857.62037 Z M2043.47628,1961.71128 L3647.69006,1961.71128 L3647.69006,2019.06785 L2043.47628,2019.06785 L2043.47628,1961.71128 Z" transform="translate(1853.984085, 1417.889567) rotate(-30.000000) translate(-1853.984085, -1417.889567) "></path>
                </g>
            </g>
        </g>
    </g>
</svg>