<?xml version="1.0" encoding="UTF-8"?>
<svg width="1400px" height="600px" viewBox="0 0 1400 600" version="1.1" xmlns="http://www.w3.org/2000/svg" xmlns:xlink="http://www.w3.org/1999/xlink">
    <!-- Generator: Sketch 48.2 (47327) - http://www.bohemiancoding.com/sketch -->
    <title>s__hero--bg copy</title>
    <desc>Created with Sketch.</desc>
    <defs>
        <radialGradient cx="50%" cy="-8.84496189%" fx="50%" fy="-8.84496189%" r="146.792434%" gradientTransform="translate(0.500000,-0.088450),scale(0.428571,1.000000),rotate(90.000000),scale(1.000000,0.862118),translate(-0.500000,0.088450)" id="radialGradient-1">
            <stop stop-color="#008FD6" offset="0%"></stop>
            <stop stop-color="#7825B8" offset="100%"></stop>
        </radialGradient>
        <path d="M0,0 L1400,0 L1400,599.904105 C466.666667,600.031965 2.43619707e-11,600.031965 1.6790065e-11,599.904105 C4.85564057e-12,599.702579 -7.41047761e-13,399.734544 0,0 Z" id="path-2"></path>
    </defs>
    <g id="Page-1" stroke="none" stroke-width="1" fill="none" fill-rule="evenodd">
        <g id="s__hero--bg-copy">
            <mask id="mask-3" fill="white">
                <use xlink:href="#path-2"></use>
            </mask>
            <use id="BG-1" fill="url(#radialGradient-1)" xlink:href="#path-2"></use>
            <g id="Lines-1" opacity="0.0503849638" style="mix-blend-mode: overlay;" mask="url(#mask-3)" fill="#7825B8">
                <g transform="translate(-1154.000000, -1195.000000)" id="Bars-1">
                    <path d="M961.731823,1337.16583 L2565.9456,1337.16583 L2565.9456,1394.5224 L961.731823,1394.5224 L961.731823,1337.16583 Z M781.44108,1233.07492 L2385.65486,1233.07492 L2385.65486,1290.43149 L781.44108,1290.43149 L781.44108,1233.07492 Z M601.150337,1128.98401 L2205.36412,1128.98401 L2205.36412,1186.34058 L601.150337,1186.34058 L601.150337,1128.98401 Z M420.859594,1024.8931 L2025.07337,1024.8931 L2025.07337,1082.24967 L420.859594,1082.24967 L420.859594,1024.8931 Z M240.568851,920.802193 L1844.78263,920.802193 L1844.78263,978.158759 L240.568851,978.158759 L240.568851,920.802193 Z M60.2781077,816.711283 L1664.49189,816.711283 L1664.49189,874.06785 L60.2781077,874.06785 L60.2781077,816.711283 Z M1142.02257,1441.25674 L2746.23635,1441.25674 L2746.23635,1498.6133 L1142.02257,1498.6133 L1142.02257,1441.25674 Z M1322.31331,1545.34765 L2926.52709,1545.34765 L2926.52709,1602.70421 L1322.31331,1602.70421 L1322.31331,1545.34765 Z M1502.60405,1649.43856 L3106.81783,1649.43856 L3106.81783,1706.79512 L1502.60405,1706.79512 L1502.60405,1649.43856 Z M1682.8948,1753.52947 L3287.10858,1753.52947 L3287.10858,1810.88603 L1682.8948,1810.88603 L1682.8948,1753.52947 Z M1863.18554,1857.62037 L3467.39932,1857.62037 L3467.39932,1914.97694 L1863.18554,1914.97694 L1863.18554,1857.62037 Z M2043.47628,1961.71128 L3647.69006,1961.71128 L3647.69006,2019.06785 L2043.47628,2019.06785 L2043.47628,1961.71128 Z" transform="translate(1853.984085, 1417.889567) rotate(-30.000000) translate(-1853.984085, -1417.889567) "></path>
                </g>
            </g>
        </g>
    </g>
</svg>