<?xml version="1.0" encoding="UTF-8"?>
<svg width="414px" height="118px" viewBox="0 0 414 118" version="1.1" xmlns="http://www.w3.org/2000/svg" xmlns:xlink="http://www.w3.org/1999/xlink">
    <!-- Generator: Sketch 48.2 (47327) - http://www.bohemiancoding.com/sketch -->
    <title>h__hero--logo</title>
    <desc>Created with Sketch.</desc>
    <defs>
        <linearGradient x1="20.4933078%" y1="100%" x2="90.9029359%" y2="11.1302161%" id="linearGradient-1">
            <stop stop-color="#FFFFFF" offset="0%"></stop>
            <stop stop-color="#E7E7E7" offset="100%"></stop>
        </linearGradient>
    </defs>
    <g id="Desktop-HD-Copy" stroke="none" stroke-width="1" fill="none" fill-rule="evenodd" transform="translate(-514.000000, -159.000000)">
        <g id="h__hero--logo" transform="translate(514.000000, 159.000000)">
            <path d="M74.5256328,27.6170213 L66.1781496,57.2388387 C64.2422148,64.1867753 62.669743,70.4043179 61.702029,76.3766933 L61.3380591,76.3766933 C60.007389,70.4043179 58.3137629,64.1867753 56.1365333,57.1172767 L47.0626309,27.6170213 L38.1098829,27.6170213 L28.5518701,57.7266193 C26.6159353,64.0652133 24.6805075,70.4043179 23.3498374,76.3766933 L22.9868813,76.3766933 C21.898013,70.2822451 20.3250343,64.1867753 18.6309013,57.6045465 L10.8886828,27.6170213 L0,27.6170213 L0,27.6180428 L17.6636943,86.6170213 L27.3423544,86.6170213 L36.7792129,58.5795969 C38.8357951,52.241003 40.6505756,46.146044 42.101893,39.0760345 L42.3447086,39.0760345 C43.7960261,46.0239711 45.4901591,51.8752952 47.5462344,58.4575241 L56.4994894,86.6170213 L66.1781496,86.6170213 L85.0513595,27.6170213 L74.5256328,27.6170213 Z" id="W" fill="url(#linearGradient-1)"></path>
            <path d="M384.457528,112.705724 L388.49555,112.705724 C390.727961,112.705724 392.534082,110.896876 392.534082,108.661095 C392.534082,106.425825 390.727961,104.616467 388.49555,104.616467 L384.457528,104.616467 L384.457528,112.705724 Z M393.062864,117.764574 L391.858954,117.764574 L389.215551,113.720456 L384.457528,113.720456 L384.457528,117.764574 L383.444326,117.764574 L383.444326,103.602245 L388.49555,103.602245 C391.27867,103.602245 393.547284,105.866625 393.547284,108.661095 C393.547284,110.66145 392.387226,112.572946 390.228244,113.418641 L393.062864,117.764574 Z M370.944254,104.616467 L370.944254,110.447984 L378.014745,110.447984 L378.014745,111.462716 L370.944254,111.462716 L370.944254,116.749842 L380.03401,116.749842 L380.03401,117.764574 L369.931052,117.764574 L369.931052,103.602245 L380.03401,103.602245 L380.03401,104.616467 L370.944254,104.616467 Z M360.969285,118 C360.220729,118 359.55223,117.830963 359.031096,117.625157 C357.768035,117.140006 356.689053,116.213112 356.04248,115.220339 L356.747694,114.353195 C357.018969,115.095732 358.03982,116.162043 359.398235,116.683964 C360.21308,117.000078 361.461354,117.227844 362.761129,116.529226 C363.774331,115.985346 364.390819,115.19838 364.493822,114.315915 C364.574898,113.595338 364.295465,112.89672 363.722829,112.396759 C363.083905,111.838069 362.276709,111.565874 360.587358,111.117492 C359.434949,110.808528 358.598177,110.440323 357.966392,109.955172 C357.056193,109.264215 356.600838,108.352641 356.600838,107.2419 C356.600838,104.433131 359.36917,103.381118 361.116651,103.381118 C363.517333,103.381118 365.499885,105.785936 365.727308,106.220019 L365.073596,107.013624 C364.603964,106.352286 363.061979,104.396361 361.116651,104.396361 C359.758235,104.396361 357.606901,105.168007 357.606901,107.2419 C357.606901,108.653435 358.605316,109.54407 360.852004,110.13953 C362.475066,110.573102 363.524472,110.882066 364.390819,111.631753 C365.198525,112.33752 365.610027,113.381872 365.492747,114.426223 C365.418809,115.139651 365.014956,116.470497 363.230761,117.4265 C362.437842,117.845262 361.66736,118 360.969285,118 Z M339.053112,110.675749 C339.053112,114.146878 341.872435,116.970969 345.338332,116.970969 C348.811367,116.970969 351.623552,114.146878 351.623552,110.675749 C351.623552,107.197981 348.811367,104.381551 345.338332,104.381551 C341.872435,104.381551 339.053112,107.197981 339.053112,110.675749 Z M345.338332,117.970891 C341.322236,117.970891 338.054697,114.697908 338.054697,110.675749 C338.054697,106.653591 341.322236,103.381118 345.338332,103.381118 C349.354937,103.381118 352.621966,106.653591 352.621966,110.675749 C352.621966,114.697908 349.354937,117.970891 345.338332,117.970891 Z M329.201032,112.705724 C331.433442,112.705724 333.239564,110.896876 333.239564,108.661095 C333.239564,106.425825 331.433442,104.616467 329.201032,104.616467 L325.16301,104.616467 L325.16301,112.705724 L329.201032,112.705724 Z M329.201032,103.602245 C331.984151,103.602245 334.252766,105.866625 334.252766,108.661095 C334.252766,111.455566 331.984151,113.720456 329.201032,113.720456 L325.16301,113.720456 L325.16301,117.764574 L324.149298,117.764574 L324.149298,103.602245 L329.201032,103.602245 Z M319.291841,103.381118 L319.291841,117.764574 L318.278639,117.764574 L318.278639,105.793597 L312.661919,111.26457 L306.868767,105.741507 L306.868767,117.764574 L305.855565,117.764574 L305.855565,103.381118 L312.661919,109.771836 L319.291841,103.381118 Z M287.940699,110.675749 C287.940699,114.146878 290.760023,116.970969 294.225919,116.970969 C297.698445,116.970969 300.511139,114.146878 300.511139,110.675749 C300.511139,107.197981 297.698445,104.381551 294.225919,104.381551 C290.760023,104.381551 287.940699,107.197981 287.940699,110.675749 Z M294.225919,117.970891 C290.209824,117.970891 286.942284,114.697908 286.942284,110.675749 C286.942284,106.653591 290.209824,103.381118 294.225919,103.381118 C298.242015,103.381118 301.509554,106.653591 301.509554,110.675749 C301.509554,114.697908 298.242015,117.970891 294.225919,117.970891 Z M278.256382,103.381118 C280.627999,103.381118 282.734971,104.513819 284.063811,106.271087 L283.271402,106.881867 C282.125111,105.359514 280.304713,104.381551 278.256382,104.381551 C274.790485,104.381551 271.970652,107.197981 271.970652,110.675749 C271.970652,114.146878 274.790485,116.970969 278.256382,116.970969 C280.297064,116.970969 282.110834,115.993006 283.263753,114.477802 L284.049023,115.088072 C282.720183,116.838191 280.62035,117.970891 278.256382,117.970891 C274.240286,117.970891 270.972237,114.697908 270.972237,110.675749 C270.972237,106.653591 274.240286,103.381118 278.256382,103.381118 Z M253.384227,118 C252.635161,118 251.967172,117.830963 251.445528,117.625157 C250.182977,117.140006 249.103996,116.213112 248.457423,115.220339 L249.162636,114.353195 C249.433911,115.095732 250.454762,116.162043 251.813177,116.683964 C252.628022,117.000078 253.876296,117.227844 255.176071,116.529226 C256.189273,115.985346 256.805761,115.19838 256.908254,114.315915 C256.989331,113.595338 256.710407,112.89672 256.137772,112.396759 C255.498847,111.838069 254.691651,111.565874 253.0023,111.117492 C251.849381,110.808528 251.01312,110.440323 250.381334,109.955172 C249.470625,109.264215 249.01578,108.352641 249.01578,107.2419 C249.01578,104.433131 251.784112,103.381118 253.531083,103.381118 C255.931766,103.381118 257.914828,105.785936 258.14174,106.220019 L257.488538,107.013624 C257.018906,106.352286 255.476921,104.396361 253.531083,104.396361 C252.172668,104.396361 250.021334,105.168007 250.021334,107.2419 C250.021334,108.653435 251.019749,109.54407 253.266947,110.13953 C254.889498,110.573102 255.939414,110.882066 256.805761,111.631753 C257.613467,112.33752 258.024969,113.381872 257.907179,114.426223 C257.833751,115.139651 257.429898,116.470497 255.645703,117.4265 C254.852784,117.845262 254.081792,118 253.384227,118 Z M240.190161,118 C239.441094,118 238.773105,117.830963 238.251461,117.625157 C236.98891,117.140006 235.909929,116.213112 235.263356,115.220339 L235.968569,114.353195 C236.239844,115.095732 237.260695,116.162043 238.61911,116.683964 C239.433956,117.000078 240.682229,117.227844 241.982004,116.529226 C242.995206,115.985346 243.611694,115.19838 243.714187,114.315915 C243.795264,113.595338 243.51634,112.89672 242.943705,112.396759 C242.304781,111.838069 241.497584,111.565874 239.808234,111.117492 C238.655314,110.808528 237.819053,110.440323 237.187267,109.955172 C236.276558,109.264215 235.821713,108.352641 235.821713,107.2419 C235.821713,104.433131 238.590045,103.381118 240.337016,103.381118 C242.737699,103.381118 244.720761,105.785936 244.947673,106.220019 L244.294471,107.013624 C243.824839,106.352286 242.282854,104.396361 240.337016,104.396361 C238.978601,104.396361 236.827267,105.168007 236.827267,107.2419 C236.827267,108.653435 237.825682,109.54407 240.07288,110.13953 C241.695431,110.573102 242.745348,110.882066 243.611694,111.631753 C244.419401,112.33752 244.830903,113.381872 244.713112,114.426223 C244.639684,115.139651 244.235831,116.470497 242.451636,117.4265 C241.658718,117.845262 240.887725,118 240.190161,118 Z M230.0408,113.815954 L226.398473,105.815556 L222.757165,113.815954 L230.0408,113.815954 Z M230.502783,114.830686 L222.294162,114.830686 L220.957673,117.764574 L219.849626,117.764574 L226.398473,103.381118 L232.955478,117.764574 L231.839272,117.764574 L230.502783,114.830686 Z M212.733754,118 C211.985198,118 211.316698,117.830963 210.795564,117.625157 C209.532503,117.140006 208.453522,116.213112 207.806949,115.220339 L208.512162,114.353195 C208.783437,115.095732 209.804288,116.162043 211.162704,116.683964 C211.977549,117.000078 213.225822,117.227844 214.525597,116.529226 C215.5388,115.985346 216.155288,115.19838 216.258291,114.315915 C216.339367,113.595338 216.059933,112.89672 215.487298,112.396759 C214.848374,111.838069 214.041177,111.565874 212.351827,111.117492 C211.199418,110.808528 210.362646,110.440323 209.730861,109.955172 C208.820661,109.264215 208.365307,108.352641 208.365307,107.2419 C208.365307,104.433131 211.133639,103.381118 212.881119,103.381118 C215.281802,103.381118 217.264354,105.785936 217.491776,106.220019 L216.838065,107.013624 C216.368432,106.352286 214.826447,104.396361 212.881119,104.396361 C211.522194,104.396361 209.37137,105.168007 209.37137,107.2419 C209.37137,108.653435 210.369785,109.54407 212.616473,110.13953 C214.239535,110.573102 215.288941,110.882066 216.155288,111.631753 C216.962994,112.33752 217.374496,113.381872 217.257215,114.426223 C217.183277,115.139651 216.779424,116.470497 214.99523,117.4265 C214.202311,117.845262 213.431828,118 212.733754,118 Z M86.7279941,27.5453515 L99.6283494,62.4037185 C100.966878,66.3038232 102.427276,70.9352295 103.400705,74.4701941 L103.644445,74.4701941 C104.739234,70.9352295 105.956402,66.425877 107.416801,62.1596108 L119.099478,27.5453515 L130.417565,27.5453515 L114.353693,69.5946802 C106.686602,89.8270161 101.453847,100.186781 94.1518556,106.524387 C88.9185916,111.156304 83.6853275,112.984558 81.0082705,113.471752 L75.5246379,110.293246 L78.3307036,104.452537 C81.0082705,103.599692 84.5373966,101.892981 87.701423,99.2118825 C90.6227296,96.895924 94.2732156,92.7522223 96.7070428,87.26695 C97.1945222,86.1705083 97.5591118,85.317153 97.5591118,84.7079052 C97.5591118,84.0981468 97.3158821,83.2453021 96.8294226,81.9047528 L75.0453172,27.5453515 L86.7279941,27.5453515 Z M384.033789,46.0612736 C384.033789,39.1139088 383.911919,33.1419532 383.546819,27.6571916 L392.917539,27.6571916 L393.20921,36.9062156 C395.486493,32.0516398 402.118966,26.7251906 410.029797,26.0929621 L414,35.7413422 C408.992119,35.0851114 396.877543,37.9112446 395.108136,50.2049753 C394.864906,51.6680891 394.621677,54.8808112 394.621677,58.5225091 L394.621677,86.6479992 L384.033789,86.6479992 L384.033789,46.0612736 Z M325.266013,57.1625538 C325.266013,70.0823848 332.689874,79.832902 343.155893,79.832902 C353.378681,79.832902 361.045262,70.203928 361.045262,56.9189568 C361.045262,46.924332 356.055738,34.2486086 343.399122,34.2486086 C330.742507,34.2486086 325.266013,45.9494335 325.266013,57.1625538 Z M371.99774,56.553306 C371.99774,78.3702989 356.907807,87.8767084 342.668923,87.8767084 C326.726411,87.8767084 314.435405,76.1763942 314.435405,57.5282046 C314.435405,37.7835732 327.335251,26.2042915 343.642352,26.2042915 C360.558803,26.2042915 371.99774,38.5148748 371.99774,56.553306 Z M270.405211,75.5666358 C273.569237,77.6384866 279.167601,79.832902 284.522225,79.832902 C292.310676,79.832902 295.961672,75.9322866 295.961672,71.0567726 C295.961672,65.9381724 292.919005,63.13502 285.008684,60.2098138 C274.420796,56.4317629 269.431272,50.5813505 269.431272,43.5119319 C269.431272,34.0055223 277.098363,26.2042915 289.754979,26.2042915 C295.718442,26.2042915 300.951196,27.9110022 304.237093,29.8607993 L301.560036,37.6620301 C299.247568,36.1989163 294.987733,34.2486086 289.511749,34.2486086 C283.183696,34.2486086 279.65406,37.9051164 279.65406,42.2929257 C279.65406,47.1684396 283.183696,49.3623443 290.850278,52.2870398 C301.073066,56.1871446 306.30582,61.3067661 306.30582,70.0823848 C306.30582,80.441639 298.273629,87.7551653 284.278485,87.7551653 C277.828562,87.7551653 271.865099,86.1705083 267.727644,83.7330067 L270.405211,75.5666358 Z M245.676343,51.556249 C245.676343,50.2156997 245.554983,48.3874458 245.189883,47.0468965 C243.607615,40.2210749 237.766022,34.6147701 229.733831,34.6147701 C218.659483,34.6147701 212.087691,44.3652872 212.087691,57.4061507 C212.087691,69.3505726 217.929284,79.2236543 229.490601,79.2236543 C236.670723,79.2236543 243.242515,74.4701941 245.189883,66.425877 C245.554983,64.9632739 245.676343,63.5001601 245.676343,61.7939601 L245.676343,51.556249 Z M256.386101,0 L256.386101,71.3008803 C256.386101,76.542045 256.50746,82.5140006 256.87256,86.5361591 L247.258611,86.5361591 L246.771641,76.2979374 L246.528412,76.2979374 C243.242515,82.8796513 236.061884,87.8767084 226.447934,87.8767084 C212.20956,87.8767084 201.257083,75.8107434 201.257083,57.8938553 C201.134703,38.2712778 213.304859,26.2042915 227.665103,26.2042915 C236.670723,26.2042915 242.755546,30.4705577 245.432603,35.2240178 L245.676343,35.2240178 L245.676343,0 L256.386101,0 Z M139.447151,43.5119319 C139.447151,37.4174118 139.325791,32.4203547 138.960691,27.5453515 L148.45277,27.5453515 L149.0611,37.2958686 L149.304839,37.2958686 C152.225126,31.6890532 159.040658,26.2042915 168.775968,26.2042915 C176.930538,26.2042915 189.586644,31.0798054 189.586644,51.3121413 L189.586644,86.5361591 L178.877396,86.5361591 L178.877396,52.5311475 C178.877396,43.0242273 175.34827,35.101964 165.246841,35.101964 C158.188589,35.101964 152.712096,40.099021 150.886598,46.0714873 C150.399628,47.4120366 150.156908,49.2402905 150.156908,51.0685444 L150.156908,86.5361591 L139.447151,86.5361591 L139.447151,43.5119319 Z" id="yndsor" fill="#FFFFFF"></path>
        </g>
    </g>
</svg>