<svg width="99px" height="129px" viewBox="0 0 99 129" version="1.1" xmlns="http://www.w3.org/2000/svg" xmlns:xlink="http://www.w3.org/1999/xlink">
    <g id="Desktop-HD-Copy" stroke="none" stroke-width="1" fill="none" fill-rule="evenodd" transform="translate(-671.000000, -953.000000)">
        <path d="M705.57924,1019.60316 C706.596102,1019.60316 707.421439,1018.77782 707.421439,1017.75965 L707.421439,1013.0472 C707.421439,1012.02902 706.596102,1011.20368 705.57924,1011.20368 C704.561061,1011.20368 703.736054,1012.02902 703.736054,1013.0472 L703.736054,1017.75965 C703.736054,1018.77782 704.561061,1019.60316 705.57924,1019.60316 Z M713.681559,1020.57494 L713.681559,990.075653 C715.47999,989.378987 716.75913,987.634526 716.75913,985.594548 C716.75913,982.94248 714.602,980.784362 711.948944,980.784362 L693.438102,980.784362 C690.786033,980.784362 688.627587,982.94248 688.627587,985.594548 C688.627587,987.634526 689.908043,989.378987 691.706474,990.075653 L691.706474,1020.57494 C679.265543,1025.16003 671,1036.94148 671,1050.30648 C671,1067.78269 685.217314,1082 702.693523,1082 C720.169403,1082 734.388033,1067.78269 734.388033,1050.30648 C734.386717,1036.94148 726.121173,1025.16003 713.681559,1020.57494 Z M693.438102,984.469747 L711.948944,984.469747 C712.569592,984.469747 713.073745,984.973571 713.073745,985.594548 C713.073745,986.214209 712.569592,986.718033 711.948944,986.718033 L693.438102,986.718033 C692.818441,986.718033 692.313301,986.214209 692.313301,985.594548 C692.313301,984.973571 692.818441,984.469747 693.438102,984.469747 Z M694.112719,1023.64198 C694.875202,1023.3978 695.39186,1022.6883 695.39186,1021.88863 L695.39186,990.403418 L709.996173,990.403418 L709.996173,1021.88863 C709.996173,1022.6883 710.512832,1023.3978 711.273997,1023.64198 C719.776151,1026.37764 726.231745,1032.8487 729.086857,1040.90593 C727.644492,1040.49195 725.843429,1040.12831 723.640227,1039.7966 C718.030372,1038.95217 710.591482,1038.48652 702.692207,1038.48652 C694.795564,1038.48652 687.356344,1038.95217 681.74649,1039.7966 C679.543288,1040.12831 677.742224,1040.49195 676.29986,1040.90725 C679.154972,1032.8487 685.610566,1026.37764 694.112719,1023.64198 Z M729.00327,1044.72887 C725.761158,1045.85367 716.959541,1047.28584 702.693523,1047.28584 C688.427176,1047.28584 679.624242,1045.85367 676.383446,1044.72887 C679.624242,1043.60407 688.42586,1042.17355 702.693523,1042.17355 C716.959541,1042.17355 725.762474,1043.60407 729.00327,1044.72887 Z M702.693523,1078.31461 C687.249722,1078.31461 674.685385,1065.75028 674.685385,1050.30648 C674.685385,1049.54432 674.716319,1048.78974 674.775554,1048.04174 C676.396281,1048.67654 678.684714,1049.20109 681.74649,1049.66115 C687.357661,1050.5059 694.795564,1050.97122 702.693523,1050.97122 C710.590166,1050.97122 718.030372,1050.5059 723.640227,1049.66115 C726.702332,1049.20109 728.990436,1048.67654 730.611492,1048.04174 C730.671714,1048.78974 730.701332,1049.54432 730.701332,1050.30648 C730.701332,1065.75028 718.136995,1078.31461 702.693523,1078.31461 Z M683.560388,1036.76016 C682.803171,1036.07896 682.741633,1034.91303 683.422832,1034.15712 C685.419041,1031.93714 687.71636,1030.01168 690.249959,1028.43176 C691.113798,1027.89306 692.250117,1028.15665 692.788824,1029.02049 C693.327531,1029.88433 693.063936,1031.02065 692.200097,1031.55935 C689.95938,1032.95664 687.928288,1034.65996 686.162107,1036.6226 C685.798472,1037.02639 685.295635,1037.23206 684.791811,1037.23206 C684.352158,1037.23206 683.912505,1037.07641 683.560388,1036.76016 Z M769.930166,990.218474 C769.930166,987.380145 767.621329,985.072625 764.785633,985.072625 L744.179528,985.072625 C741.342515,985.072625 739.033679,987.380145 739.033679,990.218474 C739.033679,992.443395 740.457944,994.338247 742.440332,995.054329 L742.440332,1069.95759 C742.440332,1076.59845 747.841878,1082 754.481429,1082 C761.121967,1082 766.523513,1076.59845 766.523513,1069.95759 L766.523513,995.054329 C768.505901,994.338247 769.930166,992.443395 769.930166,990.218474 Z M744.179528,988.75801 L764.785633,988.75801 C765.590566,988.75801 766.244781,989.412224 766.244781,990.218474 C766.244781,991.023079 765.590566,991.677293 764.785633,991.677293 L744.179528,991.677293 C743.374923,991.677293 742.72038,991.023079 742.72038,990.218474 C742.72038,989.413541 743.374923,988.75801 744.179528,988.75801 Z M754.482745,1009.44902 C752.837337,1009.44902 749.024597,1009.56091 746.127033,1010.47871 L746.127033,995.362679 L762.838128,995.362679 L762.838128,1010.47871 C759.939577,1009.56091 756.128153,1009.44902 754.482745,1009.44902 Z M761.605388,1013.95349 C760.164339,1014.37241 757.736046,1014.77093 754.482745,1014.77093 C751.227798,1014.77093 748.799505,1014.37109 747.358457,1013.95349 C748.799505,1013.53555 751.227798,1013.13572 754.482745,1013.13572 C757.736046,1013.13572 760.164339,1013.53555 761.605388,1013.95349 Z M754.482745,1078.31461 C749.874286,1078.31461 746.127033,1074.56605 746.127033,1069.95759 L746.127033,1017.42793 C749.024597,1018.34574 752.837337,1018.45763 754.482745,1018.45763 C756.128153,1018.45763 759.939577,1018.34574 762.838128,1017.42793 L762.838128,1026.1871 L755.005656,1026.1871 C753.987806,1026.1871 753.163786,1027.01243 753.163786,1028.0293 C753.163786,1029.04747 753.987806,1029.87281 755.005656,1029.87281 L762.838128,1029.87281 L762.838128,1031.68506 L760.200538,1031.68506 C759.18236,1031.68506 758.357023,1032.5104 758.357023,1033.52858 C758.357023,1034.54676 759.18236,1035.37209 760.200538,1035.37209 L762.838128,1035.37209 L762.838128,1037.18435 L755.005656,1037.18435 C753.987806,1037.18435 753.163786,1038.00968 753.163786,1039.02786 C753.163786,1040.04472 753.987806,1040.87006 755.005656,1040.87006 L762.838128,1040.87006 L762.838128,1042.68231 L760.200538,1042.68231 C759.18236,1042.68231 758.357023,1043.50765 758.357023,1044.52583 C758.357023,1045.54269 759.18236,1046.36803 760.200538,1046.36803 L762.838128,1046.36803 L762.838128,1048.18291 L755.005656,1048.18291 C753.987806,1048.18291 753.163786,1049.00693 753.163786,1050.02511 C753.163786,1051.04329 753.987806,1051.86863 755.005656,1051.86863 L762.838128,1051.86863 L762.838128,1053.68088 L760.200538,1053.68088 C759.18236,1053.68088 758.357023,1054.50622 758.357023,1055.5244 C758.357023,1056.54257 759.18236,1057.36659 760.200538,1057.36659 L762.838128,1057.36659 L762.838128,1059.18016 L755.005656,1059.18016 C753.987806,1059.18016 753.163786,1060.0055 753.163786,1061.02368 C753.163786,1062.04054 753.987806,1062.86555 755.005656,1062.86555 L762.838128,1062.86555 L762.838128,1069.9589 C762.838128,1074.56605 759.089888,1078.31461 754.482745,1078.31461 Z M696.340602,964.281247 C699.450094,964.281247 701.980074,961.751597 701.980074,958.640788 C701.980074,955.52998 699.450094,953 696.340602,953 C693.23111,953 690.70113,955.52998 690.70113,958.640788 C690.70113,961.750281 693.23111,964.281247 696.340602,964.281247 Z M696.340602,956.685385 C697.417686,956.685385 698.29436,957.562059 698.29436,958.640788 C698.29436,959.717872 697.417686,960.595862 696.340602,960.595862 C695.263189,960.595862 694.386515,959.717872 694.386515,958.640788 C694.386515,957.562059 695.263189,956.685385 696.340602,956.685385 Z M696.340602,978.273798 C699.450094,978.273798 701.980074,975.743819 701.980074,972.63301 C701.980074,969.523518 699.450094,966.993538 696.340602,966.993538 C693.23111,966.993538 690.70113,969.523518 690.70113,972.63301 C690.70113,975.743819 693.23111,978.273798 696.340602,978.273798 Z M696.340602,970.679253 C697.417686,970.679253 698.29436,971.555926 698.29436,972.63301 C698.29436,973.71174 697.417686,974.588413 696.340602,974.588413 C695.263189,974.588413 694.386515,973.71174 694.386515,972.63301 C694.386515,971.555926 695.263189,970.679253 696.340602,970.679253 Z M709.046115,971.278181 C712.156923,971.278181 714.686903,968.747214 714.686903,965.637393 C714.686903,962.526584 712.156923,959.996934 709.046115,959.996934 C705.936622,959.996934 703.406972,962.526584 703.406972,965.637393 C703.406972,968.747214 705.936622,971.278181 709.046115,971.278181 Z M709.046115,963.682319 C710.123528,963.682319 711.000202,964.558992 711.000202,965.637393 C711.000202,966.714806 710.123528,967.59148 709.046115,967.59148 C707.969031,967.59148 707.092357,966.714806 707.092357,965.637393 C707.092357,964.558992 707.969031,963.682319 709.046115,963.682319 Z M705.57924,1008.55951 C704.561061,1008.55951 703.736054,1007.73417 703.736054,1006.71599 L703.736054,995.831949 C703.736054,994.81377 704.561061,993.988763 705.57924,993.988763 C706.596102,993.988763 707.421439,994.81377 707.421439,995.831949 L707.421439,1006.71599 C707.421439,1007.73417 706.596102,1008.55951 705.57924,1008.55951 Z" id="h_Experiment-icon" fill="#7825B8"></path>
    </g>
</svg>
