<svg width="117px" height="109px" viewBox="0 0 117 109" version="1.1" xmlns="http://www.w3.org/2000/svg" xmlns:xlink="http://www.w3.org/1999/xlink">
    <g id="Desktop-HD-Copy" stroke="none" stroke-width="1" fill="none" fill-rule="evenodd" transform="translate(-293.000000, -964.000000)">
        <path d="M322,976 L326,976 L326,972 L322,972 L322,976 Z M404.076923,1069 L382.923077,1069 C381.863462,1069 381,1068.102 381,1067 L381,1063 L406,1063 L406,1067 C406,1068.102 405.136538,1069 404.076923,1069 Z M348,1042 L377,1042 L377,1030 L348,1030 L348,1042 Z M365,1056 L348,1056 L348,1046 L362.303721,1046 L365,1056 Z M365.604743,1062.214 C365.238297,1062.714 364.683832,1063 364.079485,1063 L348,1063 L348,1059 L365.545268,1059 L365.930899,1060.474 C366.09014,1061.08 365.971189,1061.714 365.604743,1062.214 Z M342.041667,1069 L298.958333,1069 C297.879292,1069 297,1068.102 297,1067 L297,1063 L344,1063 L344,1067 C344,1068.102 343.120708,1069 342.041667,1069 Z M298.958333,1007 L342.041667,1007 C343.120708,1007 344,1007.898 344,1009 L344,1013 L297,1013 L297,1009 C297,1007.898 297.879292,1007 298.958333,1007 Z M297,1060 L344,1060 L344,1017 L297,1017 L297,1060 Z M303,973.8 C303,970.602267 305.63816,968 308.88,968 L395.12,968 C398.36184,968 401,970.602267 401,973.8 L401,1016.33333 L383.36,1016.33333 C380.11816,1016.33333 377.48,1018.9356 377.48,1022.13333 L377.48,1026 L348.08,1026 L348.08,1008.6 C348.08,1005.40227 345.44184,1002.8 342.2,1002.8 L303,1002.8 L303,973.8 Z M381,1059 L406,1059 L406,1030 L381,1030 L381,1059 Z M406,1022 L406,1026 L381,1026 L381,1022 C381,1020.898 381.863462,1020 382.923077,1020 L404.076923,1020 C405.136538,1020 406,1020.898 406,1022 Z M404.15,1016.55357 L404.15,973.732143 C404.15,968.365839 399.77615,964 394.4,964 L308.6,964 C303.22385,964 298.85,968.365839 298.85,973.732143 L298.85,1002.92857 C295.6247,1002.92857 293,1005.54846 293,1008.76786 L293,1067.16071 C293,1070.38011 295.6247,1073 298.85,1073 L341.75,1073 C344.9753,1073 347.6,1070.38011 347.6,1067.16071 L363.94295,1067.16071 C365.7818,1067.16071 367.47635,1066.32375 368.59175,1064.86587 C369.70715,1063.408 370.06985,1061.555 369.58625,1059.7857 L365.75255,1045.75 L376.85,1045.75 L376.85,1067.16071 C376.85,1070.38011 379.4747,1073 382.7,1073 L404.15,1073 C407.3753,1073 410,1070.38011 410,1067.16071 L410,1022.39286 C410,1019.17346 407.3753,1016.55357 404.15,1016.55357 Z M303,1045.1267 L311.126703,1037 L314,1039.8733 L305.873043,1048 L303,1045.1267 M311,1050.25912 L334.258873,1027 L337,1029.74113 L313.740884,1053 L311,1050.25912 M315,1032.32964 L326.329444,1021 L329,1023.67036 L317.670556,1035 L315,1032.32964 M385,1044.35386 L395.133549,1035 L398,1037.64614 L387.866704,1047 L385,1044.35386 M389,1051.35405 L399.133549,1042 L402,1044.64619 L391.866704,1054 L389,1051.35405 M344,997.329444 L355.329635,986 L358,988.670556 L346.670365,1000 L344,997.329444 M362,993.329444 L373.329444,982 L376,984.670556 L364.670556,996 L362,993.329444 M350,1006.12696 L358.126769,998 L361,1000.8733 L352.873231,1009 L350,1006.12696 M360,982.132 L368.132187,974 L371,976.868 L362.867813,985 L360,982.132 M307,976 L311,976 L311,972 L307,972 L307,976 Z M314,976 L318,976 L318,972 L314,972 L314,976 Z" id="h_Responsive-icon" fill="#A825A4"></path>
    </g>
</svg>
